<mxfile host="app.diagrams.net" agent="Mozilla/5.0 (Macintosh; Intel Mac OS X 10_15_7) AppleWebKit/537.36 (KHTML, like Gecko) Chrome/131.0.0.0 Safari/537.36" version="25.0.3">
  <diagram name="Page-1" id="dWti2mShp0h2cfHmsBnC">
    <mxGraphModel dx="2876" dy="1136" grid="1" gridSize="10" guides="1" tooltips="1" connect="1" arrows="1" fold="1" page="1" pageScale="1" pageWidth="827" pageHeight="1169" math="0" shadow="0">
      <root>
        <mxCell id="0" />
        <mxCell id="1" parent="0" />
        <mxCell id="2XOn3tt3TwSdEkKgVilo-1" value="Environnements SAFRAN" style="rounded=1;whiteSpace=wrap;html=1;strokeColor=#07838f;fillColor=#dafdf5;arcSize=24;absoluteArcSize=1;imageWidth=64;imageHeight=64;strokeWidth=1.5;verticalAlign=top;fontSize=15;fontStyle=1" parent="1" vertex="1">
          <mxGeometry x="363" y="120" width="340" height="490" as="geometry" />
        </mxCell>
        <mxCell id="2XOn3tt3TwSdEkKgVilo-2" value="" style="rounded=1;whiteSpace=wrap;html=1;strokeColor=#07838f;fillColor=#FFFFFF;arcSize=24;absoluteArcSize=1;imageWidth=64;imageHeight=64;strokeWidth=1.5;" parent="1" vertex="1">
          <mxGeometry x="377.5" y="230" width="311" height="340" as="geometry" />
        </mxCell>
        <mxCell id="2XOn3tt3TwSdEkKgVilo-3" value="SAP" style="shape=image;verticalLabelPosition=bottom;verticalAlign=top;imageAspect=0;aspect=fixed;image=data:image/svg+xml,PHN2ZyB4bWxucz0iaHR0cDovL3d3dy53My5vcmcvMjAwMC9zdmciIGZpbGw9Im5vbmUiIHZpZXdCb3g9IjAgMCAyOCAyOCIgaGVpZ2h0PSIyOCIgd2lkdGg9IjI4Ij4mI3hhOzxnIGNsaXAtcGF0aD0idXJsKCNjbGlwMF84NzBfMjE4KSI+JiN4YTs8cGF0aCBmaWxsPSJ1cmwoI3BhaW50MF9saW5lYXJfODcwXzIxOCkiIGQ9Ik0yMy43ODkyIDEuNzIzM0MyNC45OTE0IDEuNzIzMyAyNS45OTQxIDIuMTI1NzkgMjYuNzk3MyAyLjkyNzI2QzI3LjU5ODggMy43Mjg3MyAyNy45OTk1IDQuNzI5NyAyNy45OTk1IDUuOTMzNjVWMjIuMDY2M0MyOC4wMDggMjIuNjIyNSAyNy45MDYgMjMuMTc0OCAyNy42OTkzIDIzLjY5MTJDMjcuNDkyNiAyNC4yMDc2IDI3LjE4NTQgMjQuNjc3OCAyNi43OTU2IDI1LjA3NDVDMjUuOTk0MSAyNS44NzU5IDI0Ljk5MzEgMjYuMjc2NyAyMy43ODkyIDI2LjI3NjdINC4yMTA4N0MzLjAwODY2IDI2LjI3NjcgMi4wMDU5NSAyNS44NzU5IDEuMjAyNzMgMjUuMDc0NUMwLjgxMzE2NCAyNC42Nzc2IDAuNTA2MjkyIDI0LjIwNzQgMC4yOTk5MTggMjMuNjkxQzAuMDkzNTQzNCAyMy4xNzQ2IC0wLjAwODIyNDU4IDIyLjYyMjQgMC4wMDA1MTkyMzEgMjIuMDY2M1Y1LjkzMzY1QzAuMDAwNTE5MjMxIDQuNzMxNDUgMC40MDMwMDUgMy43Mjg3MyAxLjIwNDQ4IDIuOTI1NTFDMi4wMDQyIDIuMTI1NzkgMy4wMDY5MSAxLjcyMzMgNC4yMDkxMiAxLjcyMzNIMjMuNzg5MlpNMi43ODk5MiA3LjMwMjFIMjUuMjEwMVY1LjkzMzY1QzI1LjIxMDEgNC45ODY5NCAyNC43Mzc2IDQuNTEyNyAyMy43ODkyIDQuNTEyN0g0LjIxMDg3QzMuODI4NiA0LjUwNTcyIDMuNDU3NjUgNC42NDI0OSAzLjE3MTQgNC44OTU5NEMyLjkxNzY2IDUuMTQ5NjggMi43ODk5MiA1LjQ5NjE3IDIuNzg5OTIgNS45MzM2NVY3LjMwMDM1VjcuMzAyMVpNMjUuMjEwMSAxMC4xNDU4SDIuNzg5OTJWMjIuMDY2M0MyLjc4OTkyIDIyLjQ2ODggMi45MTc2NiAyMi43OTYgMy4xNzE0IDIzLjA1MTVDMy40NTc5MSAyMy4zMDQ0IDMuODI4ODQgMjMuNDQwNSA0LjIxMDg3IDIzLjQzM0gyMy43ODkyQzI0LjczNTkgMjMuNDMzIDI1LjIxMDEgMjIuOTc4IDI1LjIxMDEgMjIuMDY2M1YxMC4xNDRWMTAuMTQ1OFoiLz4mI3hhOzwvZz4mI3hhOzxkZWZzPiYjeGE7PGxpbmVhckdyYWRpZW50IGdyYWRpZW50VW5pdHM9InVzZXJTcGFjZU9uVXNlIiB5Mj0iMTkuMzgyNiIgeDI9IjI2LjU3ODMiIHkxPSI0LjAzMjk5IiB4MT0iMy42MTg3NCIgaWQ9InBhaW50MF9saW5lYXJfODcwXzIxOCI+JiN4YTs8c3RvcCBzdG9wLWNvbG9yPSIjMjM5NUZGIi8+JiN4YTs8c3RvcCBzdG9wLWNvbG9yPSIjMDA1N0QyIiBvZmZzZXQ9IjEiLz4mI3hhOzwvbGluZWFyR3JhZGllbnQ+JiN4YTs8Y2xpcFBhdGggaWQ9ImNsaXAwXzg3MF8yMTgiPiYjeGE7PHJlY3QgZmlsbD0id2hpdGUiIGhlaWdodD0iMjgiIHdpZHRoPSIyOCIvPiYjeGE7PC9jbGlwUGF0aD4mI3hhOzwvZGVmcz4mI3hhOzwvc3ZnPg==" parent="1" vertex="1">
          <mxGeometry x="544.5" y="297" width="100" height="100" as="geometry" />
        </mxCell>
        <mxCell id="2XOn3tt3TwSdEkKgVilo-6" value="" style="group;arcSize=24;movable=1;resizable=1;rotatable=1;deletable=1;editable=1;locked=0;connectable=1;" parent="1" vertex="1" connectable="0">
          <mxGeometry x="-90" y="120" width="1160" height="560" as="geometry" />
        </mxCell>
        <mxCell id="2XOn3tt3TwSdEkKgVilo-7" value="&lt;p style=&quot;line-height: 100%; font-size: 15px;&quot;&gt;&lt;/p&gt;&lt;h1 style=&quot;font-size: 15px;&quot;&gt;&lt;b style=&quot;font-size: 15px;&quot;&gt;GLOBAL ACCOUNT&lt;/b&gt;&lt;/h1&gt;&lt;p style=&quot;font-size: 15px;&quot;&gt;&lt;/p&gt;" style="rounded=1;whiteSpace=wrap;html=1;strokeColor=#0070F2;fillColor=#EBF8FF;arcSize=24;absoluteArcSize=1;imageWidth=64;imageHeight=64;strokeWidth=1.5;verticalAlign=top;fontSize=15;align=left;spacing=2;" parent="2XOn3tt3TwSdEkKgVilo-6" vertex="1">
          <mxGeometry x="-160" width="500.88" height="493.69" as="geometry" />
        </mxCell>
        <mxCell id="2XOn3tt3TwSdEkKgVilo-8" value="" style="shape=image;verticalLabelPosition=bottom;labelBackgroundColor=default;verticalAlign=top;aspect=fixed;imageAspect=0;image=data:image/svg+xml,PHN2ZyB4bWxuczp4bGluaz0iaHR0cDovL3d3dy53My5vcmcvMTk5OS94bGluayIgeG1sbnM9Imh0dHA6Ly93d3cudzMub3JnLzIwMDAvc3ZnIiB2aWV3Qm94PSIwIDAgMTQ0Ljc0NyAzOS44MzIiIGlkPSJhIj48ZGVmcz48bGluZWFyR3JhZGllbnQgZ3JhZGllbnRVbml0cz0idXNlclNwYWNlT25Vc2UiIHkyPSIzOS44MzIiIHgyPSI0MC4yNTgiIHkxPSIwIiB4MT0iNDAuMjU4IiBpZD0iYiI+PHN0b3Agc3RvcC1jb2xvcj0iIzAwYjhmMSIgb2Zmc2V0PSIwIi8+PHN0b3Agc3RvcC1jb2xvcj0iIzAwYjVlZiIgb2Zmc2V0PSIuMDE2Ii8+PHN0b3Agc3RvcC1jb2xvcj0iIzBkOTBkOCIgb2Zmc2V0PSIuMzA4Ii8+PHN0b3Agc3RvcC1jb2xvcj0iIzE2NzVjOCIgb2Zmc2V0PSIuNTc4Ii8+PHN0b3Agc3RvcC1jb2xvcj0iIzFjNjRiZSIgb2Zmc2V0PSIuODE3Ii8+PHN0b3Agc3RvcC1jb2xvcj0iIzFlNWZiYiIgb2Zmc2V0PSIxIi8+PC9saW5lYXJHcmFkaWVudD48L2RlZnM+PHBvbHlsaW5lIGZpbGwtcnVsZT0iZXZlbm9kZCIgZmlsbD0idXJsKCNiKSIgcG9pbnRzPSIwIDM5LjgzMiA0MC42OTIgMzkuODMyIDgwLjUxNyAwIDAgMCAwIDM5LjgzMiIvPjxwYXRoIGZpbGwtcnVsZT0iZXZlbm9kZCIgZmlsbD0iI2ZmZiIgZD0ibTQ3Ljc4Miw3LjQ4OWwtNy45MjUtLjAwNXYxOC44NDVsLTYuOTI0LTE4Ljg0NWgtNi44NjVsLTUuOTEyLDE1Ljc1OWMtLjYzLTMuOTczLTQuNzQtNS4zNDUtNy45NzQtNi4zNzQtMi4xMzUtLjY4Ni00LjQwMS0xLjY5NC00LjM4LTIuODA5LjAxNy0uOTE1LDEuMjE1LTEuNzY1LDMuNTg5LTEuNjM3LDEuNTk1LjA4NCwzLjAwMS4yMTMsNS44LDEuNTYzbDIuNzUzLTQuNzk1Yy0yLjU1NS0xLjMtNi4wODYtMi4xMjEtOC45NzgtMi4xMjRoLS4wMTdjLTMuMzc0LDAtNi4xODUsMS4wOTMtNy45MjgsMi44OTQtMS4yMTQsMS4yNTgtMS44NjksMi44NTYtMS44OTYsNC42MjMtLjA0NCwyLjQzMi44NDgsNC4xNTcsMi43MjEsNS41MzMsMS41ODMsMS4xNiwzLjYwNiwxLjkxMiw1LjM5LDIuNDY1LDIuMjAxLjY4MSwzLjk5NiwxLjI3NCwzLjk3NSwyLjUzOS0uMDE2LjQ1OS0uMTkxLjg4OC0uNTIxLDEuMjM2LS41NDguNTY2LTEuMzkxLjc3OS0yLjU1NS43OTktMi4yNDQuMDQ4LTMuOTEtLjMwMy02LjU2Mi0xLjg3bC0yLjQ0OCw0Ljg2MWMyLjY0NCwxLjUwNiw1Ljc3NiwyLjM4OCw4Ljk3MiwyLjM4OGwuNDExLS4wMDZjMi43ODItLjA1LDUuMDI2LS44NDIsNi44Mi0yLjI4Ni4xMDMtLjA4MS4xOTYtLjE2Ni4yOTEtLjI1bC0uNzk1LDIuMTIzaDcuMmwxLjIwOC0zLjY3NGMxLjI2NS40MzMsMi43MDQuNjcxLDQuMjMyLjY3MSwxLjQ4NywwLDIuODg5LS4yMjksNC4xMzEtLjYzNWwxLjE2NCwzLjYzN2gxMS43NDJ2LTcuNjA3aDIuNTYxYzYuMTg4LDAsOS44NTEtMy4xNTQsOS44NTEtOC40MzYsMC01Ljg4NS0zLjU1Ny04LjU4NS0xMS4xMzItOC41ODVabS0xOC4zMTcsMTYuMTI0Yy0uOTI1LDAtMS43OTItLjE2LTIuNTM5LS40NDNsMi41MTItNy45MjZoLjA0OGwyLjQ2OCw3Ljk0OGMtLjc0Mi4yNjMtMS41ODkuNDIxLTIuNDg4LjQyMVptMTguNzgzLTQuNTUzaC0xLjc0NnYtNi4zODZoMS43NDZjMi4zMjgsMCw0LjE4NS43NzMsNC4xODUsMy4xNTEsMCwyLjQ2MS0xLjg1NywzLjIzNi00LjE4NSwzLjIzNiIvPjxwYXRoIGZpbGw9IiMwMDJhODYiIGQ9Im04MC4yMTcsNy40MDFoMTAuMDYzYzUuNTk1LDAsOC42NzQsMS45MTcsOC42NzQsNi4xNTgsMCwyLjkwMy0xLjUxMyw1LjAxNC00LjMxMSw1LjcsMy4yOS40NTgsNS4yNzgsMi41ODYsNS4yNzgsNS44OTQsMCw1LjAxNC00LjA2NCw3LjAzNy05LjE4NCw3LjAzN2gtMTAuNTIxVjcuNDAxWm0xMy45NjksNi44MjZjMC0yLjE2NC0xLjQ5Ni0yLjk3My00LjI0LTIuOTczaC01LjA0OXY2LjI5OGg0Ljg5MWMzLjIwMiwwLDQuMzk4LTEuMTYxLDQuMzk4LTMuMzI1Wm0xLjAyMSwxMC41MjFjMC0yLjM1Ny0xLjc3Ny0zLjQ2Ni00LjgzOS0zLjQ2NmgtNS40NzF2Ny4wNTVoNS41MDZjMi44MTUsMCw0LjgwNC0uNzc0LDQuODA0LTMuNTg5WiIvPjxwYXRoIGZpbGw9IiMwMDJhODYiIGQ9Im0xMDkuMDUxLDExLjVoLTcuNTgzdi00LjA5OWgxOS44NDZ2NC4wOTloLTcuNTY1djIwLjY5aC00LjY5N1YxMS41WiIvPjxwYXRoIGZpbGw9IiMwMDJhODYiIGQ9Im0xMjUuMTQ4LDcuNDAxaDEwLjUwNGM2LjE5MiwwLDkuMDk2LDMuMTg1LDkuMDk2LDcuODk5LDAsNC4zOTgtMi44MzMsOC4xNDYtOC44NSw4LjE0NmgtNi4wN3Y4Ljc0NGgtNC42OFY3LjQwMVptMTQuOTAyLDcuOTUyYzAtMi41NTEtMS42ODktMy45MjMtNC45NDQtMy45MjNoLTUuMjc4djguMDRoNS40MTljMy4yNzIsMCw0LjgwNC0xLjU4Myw0LjgwNC00LjExN1oiLz48L3N2Zz4=;strokeWidth=1.5;" parent="2XOn3tt3TwSdEkKgVilo-6" vertex="1">
          <mxGeometry x="254.20493087813006" y="15.291719200215214" width="52.737676979473186" height="14.54604029025577" as="geometry" />
        </mxCell>
        <mxCell id="2XOn3tt3TwSdEkKgVilo-10" value="&lt;font style=&quot;font-size: 16px;&quot;&gt;&lt;b&gt;&lt;font face=&quot;arial&quot; style=&quot;color: rgb(29, 45, 62); text-wrap-mode: nowrap;&quot;&gt;SubAccount&amp;nbsp;&lt;/font&gt;&lt;span style=&quot;font-family: arial; color: rgb(29, 45, 62); text-wrap-mode: nowrap; background-color: initial;&quot;&gt;DEV&lt;/span&gt;&lt;/b&gt;&lt;/font&gt;" style="rounded=1;whiteSpace=wrap;html=1;strokeColor=#0070F2;strokeWidth=1.5;arcSize=24;fillColor=#FFFFFF;perimeterSpacing=0;absoluteArcSize=1;verticalAlign=top;align=left;" parent="2XOn3tt3TwSdEkKgVilo-6" vertex="1">
          <mxGeometry x="-100" y="174.33" width="247.38" height="192.85" as="geometry" />
        </mxCell>
        <mxCell id="2XOn3tt3TwSdEkKgVilo-11" value="SAP Connectivity&#xa;Service" style="shape=image;verticalLabelPosition=bottom;verticalAlign=top;imageAspect=0;aspect=fixed;image=data:image/svg+xml,PHN2ZyB4bWxucz0iaHR0cDovL3d3dy53My5vcmcvMjAwMC9zdmciIGZpbGw9Im5vbmUiIHZpZXdCb3g9IjAgMCAxNiAxNiIgaGVpZ2h0PSIxNiIgd2lkdGg9IjE2Ij4mI3hhOzxjaXJjbGUgc3Ryb2tlLXdpZHRoPSIwLjI4NTcwOCIgc3Ryb2tlPSIjRDVEQUREIiBmaWxsPSJ1cmwoI3BhaW50MF9saW5lYXJfMzUxNF80MDIwMikiIHI9IjcuODU2OTYiIGN5PSI3Ljk5OTA4IiBjeD0iNy45OTkzMyIvPiYjeGE7PGcgY2xpcC1wYXRoPSJ1cmwoI2NsaXAwXzM1MTRfNDAyMDIpIj4mI3hhOzxwYXRoIGZpbGw9InVybCgjcGFpbnQxX2xpbmVhcl8zNTE0XzQwMjAyKSIgZD0iTTguNTgyOTIgNC4xMTQ3NEM4LjU4MjkyIDMuODM4NiA4LjgwNjc4IDMuNjE0NzUgOS4wODI5MiAzLjYxNDc1SDEwLjYyNjRDMTEuNTkyOSAzLjYxNDc1IDEyLjM3NjQgNC4zOTgyNSAxMi4zNzY0IDUuMzY0NzRWNi42OTM5NUMxMi4zNzY0IDYuOTcwMSAxMi4xNTI1IDcuMTkzOTUgMTEuODc2NCA3LjE5Mzk1QzExLjYwMDIgNy4xOTM5NSAxMS4zNzY0IDYuOTcwMSAxMS4zNzY0IDYuNjkzOTVWNS4zNjQ3NEMxMS4zNzY0IDQuOTUwNTMgMTEuMDQwNiA0LjYxNDc0IDEwLjYyNjQgNC42MTQ3NEg5LjA4MjkyQzguODA2NzggNC42MTQ3NCA4LjU4MjkyIDQuMzkwODkgOC41ODI5MiA0LjExNDc0Wk00LjEyMTU4IDguNTMzMjRDNC4zOTc3MiA4LjUzMzI0IDQuNjIxNTggOC43NTcxIDQuNjIxNTggOS4wMzMyNFYxMC42MjgxQzQuNjIxNTggMTEuMDQyMyA0Ljk1NzM2IDExLjM3ODEgNS4zNzE1OCAxMS4zNzgxSDcuMDY5MjVDNy4zNDUzOSAxMS4zNzgxIDcuNTY5MjUgMTEuNjAxOSA3LjU2OTI1IDExLjg3ODFDNy41NjkyNSAxMi4xNTQyIDcuMzQ1MzkgMTIuMzc4MSA3LjA2OTI1IDEyLjM3ODFINS4zNzE1OEM0LjQwNTA4IDEyLjM3ODEgMy42MjE1OCAxMS41OTQ2IDMuNjIxNTggMTAuNjI4MVY5LjAzMzI0QzMuNjIxNTggOC43NTcxIDMuODQ1NDQgOC41MzMyNCA0LjEyMTU4IDguNTMzMjRaIiBjbGlwLXJ1bGU9ImV2ZW5vZGQiIGZpbGwtcnVsZT0iZXZlbm9kZCIvPiYjeGE7PHBhdGggZmlsbD0idXJsKCNwYWludDJfbGluZWFyXzM1MTRfNDAyMDIpIiBkPSJNMTIuODQzMiAxMS45MzI4QzEyLjk0NzQgMTIuMDM3IDEyLjk5OTUgMTIuMTQ3NyAxMi45OTk1IDEyLjI2NDlDMTIuOTk5NSAxMi4zOTUxIDEyLjk0NzQgMTIuNTEyMyAxMi44NDMyIDEyLjYxNjRDMTIuNzM5MSAxMi43MjA2IDEyLjYyMTkgMTIuNzcyNyAxMi40OTE3IDEyLjc3MjdDMTIuMzc0NSAxMi43NzI3IDEyLjI2MzggMTIuNzIwNiAxMi4xNTk2IDEyLjYxNjRMMTAuNzcyOSAxMS4yMjk3QzEwLjM2OTMgMTEuNTgxMyA5LjkxMzU2IDExLjc1MDYgOS40MDU3NSAxMS43Mzc1QzguODk3OTQgMTEuNzExNSA4LjQ1NTI0IDExLjUwOTcgOC4wNzc2MyAxMS4xMzIxTDcuNjI4NDIgMTAuNjgyOEM3LjUyNDI1IDEwLjU3ODcgNy40NzIxNyAxMC40NjggNy40NzIxNyAxMC4zNTA4QzcuNDcyMTcgMTAuMjIwNiA3LjUyNDI1IDEwLjEwMzQgNy42Mjg0MiA5Ljk5OTI2TDEwLjE2NzUgNy40NjAyQzEwLjI3MTYgNy4zNTYwNCAxMC4zODg4IDcuMzAzOTYgMTAuNTE5IDcuMzAzOTZDMTAuNjQ5MiA3LjMwMzk2IDEwLjc2NjQgNy4zNTYwNCAxMC44NzA2IDcuNDYwMkwxMS4zMTk4IDcuOTA5NDJDMTEuNjk3NCA4LjI4NzAyIDExLjg5MjcgOC43MjMyMiAxMS45MDU3IDkuMjE4MDFDMTEuOTMxOCA5LjY5OTc4IDExLjc4MiAxMC4xMzYgMTEuNDU2NSAxMC41MjY2TDEyLjg0MzIgMTEuOTMyOFoiIGNsaXAtcnVsZT0iZXZlbm9kZCIgZmlsbC1ydWxlPSJldmVub2RkIi8+JiN4YTs8cGF0aCBmaWxsPSJ1cmwoI3BhaW50M19saW5lYXJfMzUxNF80MDIwMikiIGQ9Ik03LjcxNTE4IDguNzA0MDZDNy42MTEwMSA4LjgwODIzIDcuNDkzODIgOC44NjAzMSA3LjM2MzYxIDguODYwMzFDNy4yNDY0MiA4Ljg2MDMxIDcuMTM1NzUgOC44MDgyMyA3LjAzMTU4IDguNzA0MDZMNi4xMzMxNCA3LjgwNTYzTDUuNzQyNTIgOC4xOTYyNUM1LjYzODM1IDguMzAwNDIgNS41MjExNiA4LjM1MjUgNS4zOTA5NSA4LjM1MjVDNS4yNDc3MyA4LjM1MjUgNS4xMzA1NCA4LjMwMDQyIDUuMDM5MzkgOC4xOTYyNUw0LjU5MDE3IDcuNzY2NTdDNC4yMTI1NyA3LjM4ODk2IDQuMDEwNzUgNi45NTkyOCAzLjk4NDcgNi40Nzc1MUMzLjk1ODY2IDUuOTgyNzIgNC4wOTUzOCA1LjUzMzUgNC4zOTQ4NiA1LjEyOTg2TDMuMTU1NzYgMy44NTgzOUMzLjA1MTYgMy43NTQyMyAyLjk5OTUxIDMuNjM3MDQgMi45OTk1MSAzLjUwNjgzQzIuOTk5NTEgMy4zNzY2MyAzLjA1MTYgMy4yNTk0NCAzLjE1NTc2IDMuMTU1MjdDMy4yNTk5MyAzLjA1MTExIDMuMzcwNjEgMi45OTkwMiAzLjQ4Nzc5IDIuOTk5MDJDMy42MTggMi45OTkwMiAzLjczNTE5IDMuMDUxMTEgMy44MzkzNiAzLjE1NTI3TDUuMDc4NDUgNC40MjY3NEM1LjQ4MjEgNC4xMDEyMiA1LjkzNzgzIDMuOTUxNDggNi40NDU2NCAzLjk3NzUyQzYuOTUzNDYgNC4wMDM1NiA3LjM5NjE2IDQuMjA1MzggNy43NzM3NyA0LjU4Mjk5TDguMjIyOTkgNS4wMzIyQzguMzE0MTMgNS4xMjMzNSA4LjM1OTcxIDUuMjQwNTMgOC4zNTk3MSA1LjM4Mzc2QzguMzU5NzEgNS41MTM5NyA4LjMxNDEzIDUuNjI0NjUgOC4yMjI5OSA1LjcxNTc5TDcuODEyODMgNi4xMjU5NUw4LjcxMTI3IDcuMDA0ODVDOC44MTU0NCA3LjEwOTAyIDguODY3NTIgNy4yMjYyIDguODY3NTIgNy4zNTY0MUM4Ljg2NzUyIDcuNDg2NjIgOC44MTU0NCA3LjYwMzgxIDguNzExMjcgNy43MDc5N0M4LjYwNzEgNy44MTIxNCA4LjQ4OTkyIDcuODY0MjIgOC4zNTk3MSA3Ljg2NDIyQzguMjI5NSA3Ljg2NDIyIDguMTEyMzEgNy44MTIxNCA4LjAwODE0IDcuNzA3OTdMNy4xMjkyNCA2LjgwOTU0TDYuODE2NzQgNy4xMjIwNEw3LjI2NTk2IDcuNTYxNDlMNy43MTUxOCA4LjAwMDk0QzcuODE5MzQgOC4xMDUxMSA3Ljg3MTQzIDguMjIyMjkgNy44NzE0MyA4LjM1MjVDNy44NzE0MyA4LjQ4MjcxIDcuODE5MzQgOC41OTk5IDcuNzE1MTggOC43MDQwNloiLz4mI3hhOzwvZz4mI3hhOzxkZWZzPiYjeGE7PGxpbmVhckdyYWRpZW50IGdyYWRpZW50VW5pdHM9InVzZXJTcGFjZU9uVXNlIiB5Mj0iMTQuNzQ3IiB4Mj0iMTMuNjg3NCIgeTE9IjIuMjcwMTYiIHgxPSIxLjQ1MDQzIiBpZD0icGFpbnQwX2xpbmVhcl8zNTE0XzQwMjAyIj4mI3hhOzxzdG9wIHN0b3AtY29sb3I9IndoaXRlIi8+JiN4YTs8c3RvcCBzdG9wLWNvbG9yPSIjRUFFQ0VFIiBvZmZzZXQ9IjEiLz4mI3hhOzwvbGluZWFyR3JhZGllbnQ+JiN4YTs8bGluZWFyR3JhZGllbnQgZ3JhZGllbnRVbml0cz0idXNlclNwYWNlT25Vc2UiIHkyPSIxMS4wNTc0IiB4Mj0iMTEuMDciIHkxPSI0LjkyNTI1IiB4MT0iNC45MzM5NiIgaWQ9InBhaW50MV9saW5lYXJfMzUxNF80MDIwMiI+JiN4YTs8c3RvcCBzdG9wLWNvbG9yPSIjMDE5NUZGIi8+JiN4YTs8c3RvcCBzdG9wLWNvbG9yPSIjMTE0N0U5IiBvZmZzZXQ9IjAuOTkxMDI4Ii8+JiN4YTs8L2xpbmVhckdyYWRpZW50PiYjeGE7PGxpbmVhckdyYWRpZW50IGdyYWRpZW50VW5pdHM9InVzZXJTcGFjZU9uVXNlIiB5Mj0iMTEuOTkxOCIgeDI9IjEyLjEyODQiIHkxPSI4LjEyNDQ0IiB4MT0iOC4yOTkzOCIgaWQ9InBhaW50Ml9saW5lYXJfMzUxNF80MDIwMiI+JiN4YTs8c3RvcCBzdG9wLWNvbG9yPSIjMDBCQkZGIi8+JiN4YTs8c3RvcCBzdG9wLWNvbG9yPSIjMDA4QkZGIiBvZmZzZXQ9IjEiLz4mI3hhOzwvbGluZWFyR3JhZGllbnQ+JiN4YTs8bGluZWFyR3JhZGllbnQgZ3JhZGllbnRVbml0cz0idXNlclNwYWNlT25Vc2UiIHkyPSI3Ljk4NTcxIiB4Mj0iNy45NjkwMiIgeTE9IjMuODYxMzQiIHgxPSIzLjg2NzA2IiBpZD0icGFpbnQzX2xpbmVhcl8zNTE0XzQwMjAyIj4mI3hhOzxzdG9wIHN0b3AtY29sb3I9IiMxMzQ4RkYiLz4mI3hhOzxzdG9wIHN0b3AtY29sb3I9IiMwNjIzOEQiIG9mZnNldD0iMSIvPiYjeGE7PC9saW5lYXJHcmFkaWVudD4mI3hhOzxjbGlwUGF0aCBpZD0iY2xpcDBfMzUxNF80MDIwMiI+JiN4YTs8cmVjdCB0cmFuc2Zvcm09InRyYW5zbGF0ZSgyLjk5OTI3IDIuOTk5MDIpIiBmaWxsPSJ3aGl0ZSIgaGVpZ2h0PSI5Ljk5OTk2IiB3aWR0aD0iOS45OTk5NiIvPiYjeGE7PC9jbGlwUGF0aD4mI3hhOzwvZGVmcz4mI3hhOzwvc3ZnPg==;points=[[0,0,0,0,0],[0,0.25,0,0,0],[0,0.5,0,0,0],[0,0.75,0,0,0],[0.25,0,0,0,0],[0.5,0,0,0,0],[0.75,0,0,0,0],[1,0,0,0,0],[1,0.25,0,0,0],[1,0.5,0,0,0],[1,0.75,0,0,0]];fontStyle=0;fontSize=12;fontColor=#1D2D3E;container=0;" parent="2XOn3tt3TwSdEkKgVilo-6" vertex="1">
          <mxGeometry x="261.676750216076" y="248.38834095542455" width="41.655187613642624" height="41.655187613642624" as="geometry" />
        </mxCell>
        <mxCell id="2XOn3tt3TwSdEkKgVilo-12" value="" style="edgeStyle=none;orthogonalLoop=1;jettySize=auto;html=1;rounded=0;endArrow=none;endFill=0;strokeWidth=2;" parent="2XOn3tt3TwSdEkKgVilo-6" edge="1">
          <mxGeometry width="80" relative="1" as="geometry">
            <mxPoint x="392.01382886776145" as="sourcePoint" />
            <mxPoint x="392.01382886776145" y="493.69111245798666" as="targetPoint" />
            <Array as="points" />
          </mxGeometry>
        </mxCell>
        <mxCell id="2XOn3tt3TwSdEkKgVilo-13" value="&lt;p style=&quot;line-height: 114%;&quot;&gt;&lt;font color=&quot;#475f75&quot; size=&quot;1&quot;&gt;&lt;b style=&quot;&quot;&gt;SSL TUNEL&lt;/b&gt;&lt;/font&gt;&lt;/p&gt;" style="rounded=1;whiteSpace=wrap;html=1;arcSize=50;strokeColor=#475f75;fillColor=#f5f6f7;fontColor=#266f3a;strokeWidth=1.5;" parent="2XOn3tt3TwSdEkKgVilo-6" vertex="1">
          <mxGeometry x="360" y="260" width="70" height="16.16" as="geometry" />
        </mxCell>
        <mxCell id="2XOn3tt3TwSdEkKgVilo-14" value="" style="endArrow=none;html=1;rounded=0;entryX=0;entryY=0.5;entryDx=0;entryDy=0;strokeColor=#475f75;strokeWidth=1.5;exitX=1;exitY=0.5;exitDx=0;exitDy=0;exitPerimeter=0;" parent="2XOn3tt3TwSdEkKgVilo-6" source="2XOn3tt3TwSdEkKgVilo-11" target="2XOn3tt3TwSdEkKgVilo-13" edge="1">
          <mxGeometry width="50" height="50" relative="1" as="geometry">
            <mxPoint x="270.8404494382022" y="254.55947986114901" as="sourcePoint" />
            <mxPoint x="395.16197061365597" y="262.2734034933054" as="targetPoint" />
          </mxGeometry>
        </mxCell>
        <mxCell id="2XOn3tt3TwSdEkKgVilo-15" style="edgeStyle=orthogonalEdgeStyle;rounded=0;orthogonalLoop=1;jettySize=auto;html=1;entryX=0;entryY=0.5;entryDx=0;entryDy=0;entryPerimeter=0;strokeColor=#A3A3A3;strokeWidth=2;endArrow=none;endFill=0;exitX=1;exitY=0.5;exitDx=0;exitDy=0;exitPerimeter=0;" parent="2XOn3tt3TwSdEkKgVilo-6" source="2XOn3tt3TwSdEkKgVilo-17" target="2XOn3tt3TwSdEkKgVilo-11" edge="1">
          <mxGeometry relative="1" as="geometry">
            <Array as="points">
              <mxPoint x="53.137424373379424" y="269.9873271254615" />
            </Array>
            <mxPoint x="92.23854796888504" y="276.92985839440195" as="sourcePoint" />
          </mxGeometry>
        </mxCell>
        <mxCell id="2XOn3tt3TwSdEkKgVilo-17" value="Business Application &#xa;Studio" style="shape=image;verticalLabelPosition=bottom;verticalAlign=top;imageAspect=0;aspect=fixed;image=data:image/svg+xml,PHN2ZyB4bWxucz0iaHR0cDovL3d3dy53My5vcmcvMjAwMC9zdmciIGZpbGw9Im5vbmUiIHZpZXdCb3g9IjAgMCA0OSA0OSIgaGVpZ2h0PSI0OSIgd2lkdGg9IjQ5Ij4mI3hhOzxjaXJjbGUgc3Ryb2tlLXdpZHRoPSIwLjg1NzE0MyIgc3Ryb2tlPSIjRDVEQUREIiBmaWxsPSJ1cmwoI3BhaW50MF9saW5lYXJfMjYyMl8zMDQwKSIgcj0iMjMuNTcxNCIgY3k9IjI0LjAzNDkiIGN4PSIyNC41Ii8+JiN4YTs8ZyBjbGlwLXBhdGg9InVybCgjY2xpcDBfMjYyMl8zMDQwKSI+JiN4YTs8cGF0aCBmaWxsPSJ1cmwoI3BhaW50MV9yYWRpYWxfMjYyMl8zMDQwKSIgZD0iTTEyLjMzODQgMjMuOTI0MUgxMi4zMzYxTDEyLjU3NzIgMjEuMjY4NUwxMi42MDggMjAuOTEzNkwxMi45MzM2IDIwLjc0OTlMMjAuMjcyMSAxNy4wNzY4TDIwLjYxMzQgMTYuOTA0NkwyMC45MzYgMTcuMTAyNkwyMy4xMzc0IDE4LjQ0NTNMMTIuMzM4NCAyMy45MjQxWk0yNi44NDI0IDIwLjcyNEwxMy4wNzU2IDI3LjYxNDZMMTIgMjguMTU0NkwxMi4yMjAxIDI1LjY1NjZMMTIuMjUxNiAyNS4zMDU2TDEyLjU3NDggMjUuMTM5NkwyNC4yNzgyIDE5LjE1NTJMMjQuNjA1NSAxOS4zNTMyTDI2Ljg0MjQgMjAuNzI0Wk0yNC4yMjIzIDI3LjgxMTVMMjUuMjc0MSAyOC4zOTM3TDI2LjQ3MjYgMjkuMDYwOEwyNi43ODg5IDI5LjIzNTJMMzguNTMwMSAyMy4zNjQ0TDM4Ljg3MzEgMjMuMTkyMkwzOC44OTEyIDIyLjgxOTlMMzguOTUxMiAyMS4zODQ5TDM5LjAwMDEgMjAuMjYzOUwyNC4yMjIzIDI3LjgxMTVaTTI4LjAwNzggMjkuOTUzNUwzNy43OTUyIDI1LjAyMzdMMzguODIxOSAyNC41MDUxTDM4Ljc3MDYgMjUuNjIzOUwzOC43MDgzIDI3LjAxNjFMMzguNjkyNiAyNy4zODYyTDM4LjM1NDIgMjcuNTU4NEwzMC43MjM0IDMxLjQ1NTlMMzAuNDA0OCAzMS4yNzkzTDI5LjA2ODMgMzAuNTQxM0wyOC4wMDc4IDI5Ljk1MzVaIiBjbGlwLXJ1bGU9ImV2ZW5vZGQiIGZpbGwtcnVsZT0iZXZlbm9kZCIvPiYjeGE7PHBhdGggZmlsbD0idXJsKCNwYWludDJfcmFkaWFsXzI2MjJfMzA0MCkiIGQ9Ik0yNC42Mzg3IDEwLjU0MzNMMjQuNjIzNSAxMC41MzQ5VjExLjcwNzdMMjQuNjEwMSAxMy4wNDQyVjEzLjM5NDdMMzUuNjU2IDIwLjQxMjRMMzUuOTgxNiAyMC42MjczTDM2LjMyNjkgMjAuNDU3NEwzOC42ODYxIDE5LjI5OThMMjQuNjM4NyAxMC41NDMzWiIvPiYjeGE7PHBhdGggZmlsbD0idXJsKCNwYWludDNfcmFkaWFsXzI2MjJfMzA0MCkiIGQ9Ik0xOS4xNjczIDI2LjIwMjhMMTguODQ4OCAyNi4wMjQ1TDE4LjUyMzIgMjYuMTg4MkwxNi4wNzI2IDI3LjQxNjdMMTcuMTMwOCAyOC4wMDYyTDI2LjY0MjEgMzMuMjg3VjMwLjQwMzZMMjYuMzEwMiAzMC4yMTYzTDE5LjE2NzMgMjYuMjAyOFoiLz4mI3hhOzxwYXRoIGZpbGw9InVybCgjcGFpbnQ0X3JhZGlhbF8yNjIyXzMwNDApIiBkPSJNMjQuNTU5IDE0Ljc4NTFIMjQuNTQ3OVYxNS45NjY0TDI0LjUzNDUgMTcuNDUzVjE3LjgwODVMMjQuODQzOCAxNy45OTk4TDMxLjc4NjIgMjIuMzM2MUwzMi4xMDcxIDIyLjUzNThMMzIuNDUwMSAyMi4zNjgyTDMzLjczNzggMjEuNzMzN0wzNC43NzE1IDIxLjIyNzRMMjQuNTU5IDE0Ljc4NTFaIi8+JiN4YTs8cGF0aCBmaWxsPSJ1cmwoI3BhaW50NV9yYWRpYWxfMjYyMl8zMDQwKSIgZD0iTTE1LjEzNjYgMjguMjYyMUwxNC44MjA0IDI4LjA4ODNMMTQuNDk3MiAyOC4yNDkyTDEyLjE5MzkgMjkuNDA5MUwxMi4xOTE2IDI5LjQxMzZMMjUuNjM2OCAzNi45NzEzTDI2LjY0MiAzNy41MzQ5VjM0LjYwMzhMMjYuMzA1NCAzNC40MTkzTDE1LjEzNjYgMjguMjYyMVoiLz4mI3hhOzwvZz4mI3hhOzxkZWZzPiYjeGE7PGxpbmVhckdyYWRpZW50IGdyYWRpZW50VW5pdHM9InVzZXJTcGFjZU9uVXNlIiB5Mj0iNDQuMjc5MiIgeDI9IjQxLjU2NDUiIHkxPSI2Ljg0Nzc1IiB4MT0iNC44NTI4NyIgaWQ9InBhaW50MF9saW5lYXJfMjYyMl8zMDQwIj4mI3hhOzxzdG9wIHN0b3AtY29sb3I9IndoaXRlIi8+JiN4YTs8c3RvcCBzdG9wLWNvbG9yPSIjRUFFQ0VFIiBvZmZzZXQ9IjEiLz4mI3hhOzwvbGluZWFyR3JhZGllbnQ+JiN4YTs8cmFkaWFsR3JhZGllbnQgZ3JhZGllbnRUcmFuc2Zvcm09InRyYW5zbGF0ZSgxNi4xODA5IDE0LjU5NjYpIHJvdGF0ZSg0NSkgc2NhbGUoMjYuNTk3OSAyNC4yMzc2KSIgZ3JhZGllbnRVbml0cz0idXNlclNwYWNlT25Vc2UiIHI9IjEiIGN5PSIwIiBjeD0iMCIgaWQ9InBhaW50MV9yYWRpYWxfMjYyMl8zMDQwIj4mI3hhOzxzdG9wIHN0b3AtY29sb3I9IiMxMzQ4RkYiLz4mI3hhOzxzdG9wIHN0b3AtY29sb3I9IiMwNjIzOEQiIG9mZnNldD0iMSIvPiYjeGE7PC9yYWRpYWxHcmFkaWVudD4mI3hhOzxyYWRpYWxHcmFkaWVudCBncmFkaWVudFRyYW5zZm9ybT0idHJhbnNsYXRlKDE2LjE4NyAxNC40OTkzKSByb3RhdGUoNDUuMzE4KSBzY2FsZSgyNi41ODQ0IDUwLjIyOTIpIiBncmFkaWVudFVuaXRzPSJ1c2VyU3BhY2VPblVzZSIgcj0iMSIgY3k9IjAiIGN4PSIwIiBpZD0icGFpbnQyX3JhZGlhbF8yNjIyXzMwNDAiPiYjeGE7PHN0b3Agc3RvcC1jb2xvcj0iIzAxOTVGRiIvPiYjeGE7PHN0b3Agc3RvcC1jb2xvcj0iIzExNDdFOSIgb2Zmc2V0PSIxIi8+JiN4YTs8L3JhZGlhbEdyYWRpZW50PiYjeGE7PHJhZGlhbEdyYWRpZW50IGdyYWRpZW50VHJhbnNmb3JtPSJ0cmFuc2xhdGUoMTYuMTg3IDE0LjQ5OTMpIHJvdGF0ZSg0NS4zMTgpIHNjYWxlKDI2LjU4NDQgNTAuMjI5MikiIGdyYWRpZW50VW5pdHM9InVzZXJTcGFjZU9uVXNlIiByPSIxIiBjeT0iMCIgY3g9IjAiIGlkPSJwYWludDNfcmFkaWFsXzI2MjJfMzA0MCI+JiN4YTs8c3RvcCBzdG9wLWNvbG9yPSIjMDE5NUZGIi8+JiN4YTs8c3RvcCBzdG9wLWNvbG9yPSIjMTE0N0U5IiBvZmZzZXQ9IjEiLz4mI3hhOzwvcmFkaWFsR3JhZGllbnQ+JiN4YTs8cmFkaWFsR3JhZGllbnQgZ3JhZGllbnRUcmFuc2Zvcm09InRyYW5zbGF0ZSgxNi4xODcgMTQuNDk5Mykgcm90YXRlKDQ1LjMxOCkgc2NhbGUoMjYuNTg0NCA1MC4yMjkyKSIgZ3JhZGllbnRVbml0cz0idXNlclNwYWNlT25Vc2UiIHI9IjEiIGN5PSIwIiBjeD0iMCIgaWQ9InBhaW50NF9yYWRpYWxfMjYyMl8zMDQwIj4mI3hhOzxzdG9wIHN0b3AtY29sb3I9IiMwMTk1RkYiLz4mI3hhOzxzdG9wIHN0b3AtY29sb3I9IiMxMTQ3RTkiIG9mZnNldD0iMSIvPiYjeGE7PC9yYWRpYWxHcmFkaWVudD4mI3hhOzxyYWRpYWxHcmFkaWVudCBncmFkaWVudFRyYW5zZm9ybT0idHJhbnNsYXRlKDE2LjE4NyAxNC40OTkzKSByb3RhdGUoNDUuMzE4KSBzY2FsZSgyNi41ODQ0IDUwLjIyOTIpIiBncmFkaWVudFVuaXRzPSJ1c2VyU3BhY2VPblVzZSIgcj0iMSIgY3k9IjAiIGN4PSIwIiBpZD0icGFpbnQ1X3JhZGlhbF8yNjIyXzMwNDAiPiYjeGE7PHN0b3Agc3RvcC1jb2xvcj0iIzAxOTVGRiIvPiYjeGE7PHN0b3Agc3RvcC1jb2xvcj0iIzExNDdFOSIgb2Zmc2V0PSIxIi8+JiN4YTs8L3JhZGlhbEdyYWRpZW50PiYjeGE7PGNsaXBQYXRoIGlkPSJjbGlwMF8yNjIyXzMwNDAiPiYjeGE7PHJlY3QgdHJhbnNmb3JtPSJ0cmFuc2xhdGUoMTIgMTAuNTM0OSkiIGZpbGw9IndoaXRlIiBoZWlnaHQ9IjI3IiB3aWR0aD0iMjciLz4mI3hhOzwvY2xpcFBhdGg+JiN4YTs8L2RlZnM+JiN4YTs8L3N2Zz4=;points=[[0,0,0,0,0],[0,0.25,0,0,0],[0,0.5,0,0,0],[0,0.75,0,0,0],[0.25,0,0,0,0],[0.5,0,0,0,0],[0.75,0,0,0,0],[1,0,0,0,0],[1,0.25,0,0,0],[1,0.5,0,0,0],[1,0.75,0,0,0]];fontStyle=0;fontSize=12;fontColor=#1D2D3E;" parent="2XOn3tt3TwSdEkKgVilo-6" vertex="1">
          <mxGeometry y="249.38834095542455" width="39.42365970576891" height="39.42365970576891" as="geometry" />
        </mxCell>
        <mxCell id="2XOn3tt3TwSdEkKgVilo-51" value="" style="shape=image;verticalLabelPosition=bottom;labelBackgroundColor=default;verticalAlign=top;aspect=fixed;imageAspect=0;image=data:image/png,iVBORw0KGgoAAAANSUhEUgAAA4QAAAGNCAYAAABJ3r/aAAAAAXNSR0IArs4c6QAAAERlWElmTU0AKgAAAAgAAYdpAAQAAAABAAAAGgAAAAAAA6ABAAMAAAABAAEAAKACAAQAAAABAAADhKADAAQAAAABAAABjQAAAADizOnOAABAAElEQVR4Aey9CYwkWXrf92Xd1XV1Vd/3fU53z/TM7MzO7OzOLo/d1ZIiKUomTZEyRRuUbBOiZBEwTBsWZIKyZVu2YUgWDUigYRoCbIuQDdASRe5yl3P29H3fd3d1dd33kXf6/4/qnK6urq7KzDgyIuP/enIqj4gX7/3ey8j3ve9KFFBMRQREQAREQAREQAREQAREQAREIHYE6mLXY3VYBERABERABERABERABERABETAISCBUBNBBERABERABERABERABERABGJKQAJhTAde3RYBERABERABERABERABERABCYSaAyIgAiIgAiIgAiIgAiIgAiIQUwISCGM68Oq2CIiACIiACIiACIiACIiACEgg1BwQAREQAREQAREQAREQAREQgZgSkEAY04FXt0VABERABERABERABERABERAAqHmgAiIgAiIgAiIgAiIgAiIgAjElIAEwpgOvLotAiIgAiIgAiIgAiIgAiIgAhIINQdEQAREQAREQAREQAREQAREIKYEJBDGdODVbREQAREQAREQAREQAREQARGQQKg5IAIiIAIiIAIiIAIiIAIiIAIxJSCBMKYDr26LgAiIgAiIgAiIgAiIgAiIgARCzQEREAEREAEREAEREAEREAERiCkBCYQxHXh1WwREQAREQAREQAREQAREQAQkEGoOiIAIiIAIiIAIiIAIiIAIiEBMCUggjOnAq9siIAIiIAIiIAIiIAIiIAIiIIFQc0AEREAEREAEREAEREAEREAEYkpAAmFMB17dFgEREAEREAEREAEREAEREAEJhJoDIiACIiACIiACIiACIiACIhBTAhIIYzrw6rYIiIAIiIAIiIAIiIAIiIAISCDUHBABERABERABERABERABERCBmBKQQBjTgVe3RUAEREAEREAEREAEREAEREACoeaACIiACIiACIiACIiACIiACMSUgATCmA68ui0CIiACIiACIiACIiACIiACEgg1B0RABERABERABERABERABEQgpgQkEMZ04NVtERABERABERABERABERABEZBAqDkgAiIgAiIgAiIgAiIgAiIgAjElIIEwpgOvbouACIiACIiACIiACIiACIiABELNAREQAREQAREQAREQAREQARGIKQEJhDEdeHVbBERABERABERABERABERABCQQag6IgAiIgAiIgAiIgAiIgAiIQEwJSCCM6cCr2yIgAiIgAiIgAiIgAiIgAiIggVBzQAREQAREQAREQAREQAREQARiSkACYUwHXt0WAREQAREQAREQAREQAREQAQmEmgMiIAIiIAIiIAIiIAIiIAIiEFMCEghjOvDqtgiIgAiIgAiIgAiIgAiIgAhIINQcEAEREAEREAEREAEREAEREIGYEpBAGNOBV7dFQAREQAREQAREQAREQAREQAKh5oAIiIAIiIAIiIAIiIAIiIAIxJSABMKYDry6LQIiIAIiIAIiIAIiIAIiIAISCDUHREAEREAEREAEREAEREAERCCmBCQQxnTg1W0REAEREAEREAEREAEREAERkECoOSACIiACIiACIiACIiACIiACMSUggTCmA69ui4AIiIAIiIAIiIAIiIAIiIAEQs0BERABERABERABERABERABEYgpAQmEMR14dVsEREAEREAEREAEREAEREAEJBBqDoiACIiACIiACIiACIiACIhATAlIIIzpwKvbIiACIiACIiACIiACIiACIiCBUHNABERABERABERABERABERABGJKQAJhTAde3RYBERABERABERABERABERABCYSaAyIgAiIgAiIgAiIgAiIgAiIQUwISCGM68Oq2CIiACIiACIiACIiACIiACEgg1BwQAREQAREQAREQAREQAREQgZgSkEAY04FXt0VABERABERABERABERABERAAqHmgAiIgAiIgAiIgAiIgAiIgAjElIAEwpgOvLotAiIgAiIgAiIgAiIgAiIgAhIINQdEQAREQAREQAREQAREQAREIKYEJBDGdODVbREQAREQAREQAREQAREQARGQQKg5IAIiIAIiIAIiIAIiIAIiIAIxJSCBMKYDr26LgAiIgAiIgAiIgAiIgAiIgARCzQEREAEREAEREAEREAEREAERiCkBCYQxHXh1WwREQAREQAREQAREQAREQAQkEGoOiIAIiIAIiIAIiIAIiIAIiEBMCUggjOnAq9siIAIiIAIiIAIiIAIiIAIiIIFQc0AEREAEREAEREAEREAEREAEYkpAAmFMB17dFgEREAEREAEREAEREAEREAEJhJoDIiACIiACIiACIiACIiACIhBTAhIIYzrw6rYIiIAIiIAIiIAIiIAIiIAISCDUHBABERABERABERABERABERCBmBKQQBjTgVe3RUAEREAEREAEREAEREAEREACoeaACIiACIiACIiACIiACIiACMSUgATCmA68ui0CIiACIiACIiACIiACIiACEgg1B0RABERABERABERABERABEQgpgQkEMZ04NVtERABERABERABERABERABEZBAqDkgAiIgAiIgAiIgAiIgAiIgAjElIIEwpgOvbouACIiACIiACIiACIiACIiABELNAREQAREQAREQAREQAREQARGIKQEJhDEdeHVbBERABERABERABERABERABCQQag6IgAiIgAiIgAiIgAiIgAiIQEwJSCCM6cCr2yIgAiIgAiIgAiIgAiIgAiIggVBzQAREQAREQAREQAREQAREQARiSkACYUwHXt0WAREQAREQAREQAREQAREQAQmEmgMiIAIiIAIiIAIiIAIiIAIiEFMCEghjOvDqtgiIgAiIgAiIgAiIgAiIgAhIINQcEAEREAEREAEREAEREAEREIGYEmiIab/V7cUECnnLT45ZITnnfJJobrW6rm6zhPYMFqPS6zIIFApWSM1ZYWrcCvm8JRqbrK4T86qhsYxKdKgIiIAIiIAIiIAIiIBfBCQQ+kU2QvUWZiYt+dmf2Mz3/8iyg4NOyxvWrrW27/yMtbz/HUu0d0WoN2pqaAjkc5a+csZm/+2/tPTt65ZPZ62+s8OaX3/X2n76F61+4/bQNFUNEQEREAEREAEREIG4EkgUUOLaefXbrJBO2vT/9c9s8g//wPIzMy8gqWtrs86f/2Vr/8W/YYmWVS98phcisBKB9PlPbPwf/66lHvdioj2/zSTq6631nfds9W/+fatft3mlavS5CIiACIiACIiACIiAjwRkD+gj3ChUnbly2qb/6P9+SRhk2ykgTv1/f2iZa2ej0BW1MUQEaH48/r//nqUePX5BGGQTC7mczZ46YTP/5g8xyfIharWaIgIiIAIiIAIiIALxIyCBMH5j/mWPC+mUzX70J5YdG/3yvcVPcuNjNnfiR2aZ9OKP9FoEXkkgfeOCYyb6ygMgFM598gPLjQ+/8hB9IAIiIAIiIAIiIAIi4D8BCYT+Mw7tFfKjg5a+efUlDc4LDYapX+ryOctr4f4CFr1YhgB8B5OnPkEwmdQyB2GPob/XMjcvL3uMPhQBERABERABERABEfCXgARCf/mGuvbM3etYlPet2MZM3xPL3L+54nE6QARIID8+gk2Elc2MKTAmz3yKE3ICJwIiIAIiIAIiIAIiUCUCEgirBL7ql4UJaOr8CSvMvhhIZql25edmLXnh5PKaxKVO1HuxJJC+c9WyfQgks1Kh9vnKBQiQrzZZXqkKfS4CIiACIiACIiACIuCOgARCd/wie3Z+asxS1y46ueFW7AQX7hdPG89REYFlCeSy2Gg4Zfm5+XyWyx6LD7M0G71zbaXD9LkIiIAIiIAIiIAIiIBPBCQQ+gQ27NVm7sFc9AkiQJZYMo8eWOaezEZLxBXbw3LQ9iXPQ5tcYsnPQvt89jNIhtkSz9BhIiACIiACIiACIiACXhKQQOglzajUBZ+t1NnPS9bisFvU+KTOfIJnz/PJRaW7amdwBLJ3aS76qPQLUvt8DWaj0j6XzkxHioAIiIAIiIAIiICHBCQQeggzKlXlJ6DFQeTQcnPAJS/QbHQiKt1UO4MmwI0GRqRNJsu6cqb3IbTPN8o6RweLgAiIgAiIgAiIgAh4Q0ACoTccI1VL9tFtyz4pQ4vzrHfZvseW670fqb6qscERyE+OW/LSmbI3GvIzM5a68IUZchOqiIAIiIAIiIAIiIAIBEtAAmGwvKt/NWpxzn1uuZnZstuSm5qyuTPw98rnyz5XJ9Q+AfqYZh7eK7+jmE8pCJL5KUUbLR+ezhABERABERABERABdwQkELrjF7mz85MwF71YvhbH6Sj8vZJn4Hs4Mxm5fqvBPhOgLyDSmORLSGOyVEsyjx9aVrkul0Kj90RABERABERABETAVwISCH3FG77Ks/dvGRfflRb6e2XxUBGBhQTyUzAXvXCqYu2xYzZ6qfLzF7ZFz0VABERABERABERABEonIIGwdFbRP5I54i6ftfz0dMV9YVCZ1EUs3KERUhGBIgFno6ESc9FnFRTgP5i8ALPRaQUtKjLVXxEQAREQAREQAREIgoAEwiAoh+Qajrkogndw8V1xgb9XEn6E+dnKhcqKr60TQ0sg6cJctNipzIO7xoBHKiIgAiIgAiIgAiIgAsERkEAYHOuqXyn74A6Cfjxw3Y40zE6zD++6rkcV1AaBwswUgsKcdd2ZHKONnkPQImmfXbNUBSIgAiIgAiIgAiJQKgEJhKWSivpxNBe9eBImeVOue1JAHSn6e2nh7pplLVSQeciNBg82CKh9Rq7LwvR4LWBRH0RABERABERABEQgEgQkEEZimNw3spgjzpW56LNmOP5e52B6WmFESfe9UQ2hIcCUEfApzU15E3k28/C+ZR7dCU331BAREAEREAEREAERqHUCEghrfYSf9S/be89VdNHFmJhzLvvkweK39TpmBApJmHl6GB00j1yXaQQ+Uq7LmE0kdVcEREAEREAERKBqBCQQVg19gBeGFid9+bQn5qLFVucmJyyJBPcq8SaQfXzP0ndveQahQLNRaJ+V69IzpKpIBERABERABERABJYlIIFwWTy18WFhdtJSV85aIZv1rkOOqeBJK6RmvatTNUWLQAHmotxomPDW528+2qjMRqM1GdRaERABERABERCBqBKQQBjVkSuj3bmnj6HFQTh/j4PApO/SbFRJ6ssYipo6tIDUI6kL2BRwk8ZkCSLUPs+bjbpIj7JEvXpLBERABERABERABETgZQISCF9mUnPvpK6etdyE9wm/c+Njlr5yxnNBs+YGoEY7lH1y31Nz0SImCpipq+etMCftc5GJ/oqACIiACIiACIiAXwQkEPpFNiT1OkE/ziMiqJfmosW+5Qs2d+oTK6STxXf0Ny4EoG12oouOe2su6uBD3ek7NyzbJ+1zXKaT+ikCIiACIiACIlA9AhIIq8c+kCvn+h5Y6vYN366VRt2KNuob3tBWXJhFLkq/NhrQa0f7fOm0tM+hnQFqmAiIgAiIgAiIQK0QkEBYKyO5VD8Q9CN9+YzlRkeX+tST9/Ljo5ZWknpPWEapkuzTR5a+j8AvHvulFhlQo52kf+LcTPEt/RUBERABERABERABEfCBgARCH6CGpUqaiyYvnvbHXPRZJws5pAk4ewLRRufC0m21IwACTGOSGxvz70oQNJnrMtf/2L9rqGYREAEREAEREAEREAGTQFjDkyA30AtfrJu+95B56BjJVCUeBJyNhvPQ3vnhl7oAYRYCZ/r6+QXv6KkIiIAIiIAIiIAIiIDXBCQQek00LPUxMMf1i5YdHvK9RbmxYUtdOonrFHy/li5QfQI5BHtJ377ue0MK6TS0z59L++w7aV1ABERABERABEQgzgQkENbo6BeSs5Y6B1NOLKr9LoUM/L1oNqo0AX6jrn793Gi4esFXv9SFnWTQImq6VURABERABERABERABPwhIIHQH65Vr5WL6NTNa4G1I33vtuUGnwZ2PV2oOgToK+po7TxORv+q3lDDnaHZqE/Ba151Xb0vAiIgAiIgAiIgAnEhIIGwFkeaATluX7LsyHBgvcuNDEFzdC6w6+lC1SFAX9FUAOaixd4VMhlLnkMezbSCFhWZ6K8IiIAIiIAIiIAIeElAAqGXNENSFxPFzy+i/TcXLXbZWbif+QwL91TxLf2tNQKOX+p5mIsGt9FAhKkbV6B9flJrNNUfERABERABERABEQgFAQmEoRgGbxuRH+6z1PXLgZvZpW5chr+XFu7ejmZ4aqNfquMr6nN00cU9zg4NWuaazEYXc9FrERABERABERABEfCCgARCLyiGrI7MzWCiiy7uNjVHmesXFr+t1zVCINePNCa34JcasD/ffLRRBC2CQKoiAiIgAiIgAiIgAiLgLQEJhN7yrH5tGYTqv4Bk9KngzEWLnWZeuuRZmI2iDSo1RuCZuWiQfqkLCaYgiOYGFW10IRM9FwEREAEREAEREAEvCEgg9IJiiOrIjQ5Y6tqlwLU4RQT098oPKdpokUet/KVfKpPEV0vYzyFAUubGxarN61oZR/VDBERABERABERABBYTkEC4mEikXxcse+eKZQeqJ5BlhwYgOMBsNGCzwkgPWwQanx+CX+q14P1Si2jyyaSlLkHzDcFURQREQAREQAREQAREwDsCEgi9Y1n9mmiyeemM5eeqt2h2/L1Of6Joo9WfDZ62IHXxFDYa+j2ts6zKsMGQunEVZqN9ZZ2mg0VABERABERABERABJYnIIFweT6R+jQ/MQItSvVzAc6nCdDCPVKTZ5nGOuaiV85aPlXdlCLZwQFHA75MU/WRCIiACIiACIiACIhAmQQkEJYJLMyHZ+7dtExf9dM+0Gw0cxPmhSo1QSA/NmQM6lJtM2CajSbPnzTLVFcwrYlBVSdEQAREQAREQARE4BkBCYS1MhWyGUthsZyfnal6j5ikPnX5jMxGqz4S3jQgc+uyZftDoPGl2ei1i5YbGfCmY6pFBERABERABERABETAJBDWyCTIT4xZ8uLpqmtxHJz5PHwZz1pO0UajP7ugjUud+RTmouFIJZJ52mcZBE5SEQEREAEREAEREAER8IaABEJvOFa9luzjOzAXfVT1dhQbkBsehNko0l+oRJpAfnzYktfDY/5bgB9j6iLMRrPhEFAjPbhqvAiIgAiIgAiIgAiAgATCWpgGhbylrpyz/Ez1zUWLOPPJOUtfOaOFexFIJP8WLHP7qmWhlQtTSV25aPmJ4TA1SW0RAREQAREQAREQgcgSkEAY2aF73vD8zNR8sA2Yaoam0N/r6gXLjQ6FpklqSJkE4AuaPH/CGMwlTIUCavbe9XCYR4cJjNoiAiIgAiIgAiIgAhUQkEBYAbSwnZJ9CHPR+3fC1iwn4qn8vUI3LCU3KMfoopfPh07wykETnrogs9GSB1IHioAIiIAIiIAIiMAyBCQQLgMnKh8lz35muemp0DWXmqXU6U/NctnQtU0NWplA5vYVyzytfhqTl1oK7XMS+Tbzk6MvfaQ3REAEREAEREAEREAEyiPQUN7hOjpsBAowF01dQHTRMJmLFiHRbBQBSRiYpG7NxuK7+hsBAgVGFz33ueXn5kLZ2kzvY8vev25NazaFsn1qVOkECrhP5HJ53MLyloGZ8lwyZel0xvLwjc5mczYzM+ukwEwioBCPYWlqbLSGhgZrbGywtlWtVldfZ81NTdbS3GRNTY1WX19vdXXa7yx9FHSkCIiACIhAnAlIIIz46Gd671v6/u3Q9iLT12uZu9esWQJhaMdoqYblx4aR8w/RRcO40YAGO2ajyHXZdPzrZvWNS3VB74WQAIU/Cnmz2GiYmp6xsfFJm5qattGxCed1JpO15AKB0AqYgjiHhefywZJIJOYffF6XcIQ/CoItzc22CgLi6q4O617dZT3dXdbV2WHtbasc4ZHnqYiACIiACIiACLxIQALhizwi9yp9+azlpyZD225qmKhpan7rG1i4a7qFdqAWNSz74CbMRXsXvRuilxBUU9cuWdv0hNV1rQ1Rw9SUxQSo/aPwNzwyZgODw9Y/OGQTE1MQCpOWhQCYq2DToSgYOtfKzV8xhVyZU1PzkZYf4i0Kf9QitrQ0OcLhhvVrbcum9bZh3Rprg4AYNuFwdnbOEZAh9i5GuOJrakzXrun2RSuazeWs90m/o7WlPP1MJnfatPD1Us/53vp1ayGUt6/Yh7AcMDQ8auMTk/Oj8Gwoluob27vwfUNfmxoabcvmDc7mQ1j6o3aEn0A2m7WnA8M2h3vi4jnltH65eYh5t7an29n8Cn9P1cIwE9AKPcyjs0LbCumUJc+dWOGoKn+M1QP9vdplNlrlgSjj8rkMhHhEF52dLeOk4A9N379nFFybXpdAGDz95a9ILeAkNH8UJO4/7LXBoRGjwEPhIqhCoZEmqHxQUHz0uM/ON9RbR0e7Ixju2rHVNm1c72gPwyAc9vb125/9+QnHfLZcRuvW9thPfedDa29vK/fUFY+noP3xZ6dtdHQcEtCzw7lAfdVzHvLss7pEnX3rG1+1o6/tf3Zi+P9cv3XPzl24ioaik4v7yeazb88W6MV+Fo/rxNz6uZ/+SS3OyUmlZAJJfMc+P3nOnj4d/PK7U5xTTiXLzMMETOPfeeuovfv2675sCJXcCR0YeQISCCM8hNknDy19G+H3Q14yTx4jn90VmY2GfJyKzXOS0V86G1pz0S/bOUX/2S+s6ci70j4XoVTxL/37Jp8JXhQCqQ2cdvz/iqvnKjbu2aUpqI7BPJWPazfuwrS003Zs32wH9u2y9WvXVFWzk88XLA3hlW0st/C8omltueeWcjy1uJVocvMJbAjC9zNKhRsJnMsvaKFL7ADHUEUEKiHAOVfJd4ye0kXf6kquq3NEoEhAAmGRRNT+4kcrBR+q3MRY6Fuen5u11KXT1vz2h2YwqVEJN4Hsw9tIRh/C6KKLsBWgbUpdPGttPzcus9FFbIJ8mYG509DQqN29/8ju3HtkE5OTFWm5gmwzr8VF1OjYOMw0J+wGtEI7tm22g/t329bNG60ZwWlU3BMoClfua4pGDTT3UxEBERCBKBKQQBjFUUObC6mkJU99EnotjoMXu6b098pPjlldz/qIEo9Js5EihMJ72M1Fi6ORfnjfso/uWtNRmY0WmQT1NweBvB9+L1eu33bMQmkSWolWJaj2vuo6bDN9dygUUrO5ZdMGO3J4n23fulmC4aug6f0lCWAqoUhLuCQcvSkCIhBqAhIIQz08r25cto/motdefUDIPsk8emCZezetWQJhyEbmxebkp8ahdTtj1L5FoeRgNpqGANv02lcMDhRRaHLk20jNGgPEUBC8efu+4xsY+U496wD95e49eGxPng5AY7jF3jh60DYjEA3TWKiIgAiIgAiIQK0S0AoqiiNLc9ELp5DfLzqJuXPT8Pc6jwA4MC9TCS8BBmlJP7of3gYubhmEk+T5k1aYnVr8iV77QIDRQk+fu2x/9Mc/sguXrteUMLgQFwXDW3fu27/+04/sk8/PIOqk5tdCPnq+NIF5k1HZjS5NR++KgAiEmYA0hGEenVe0rZBEKocLWARHRIvjdAML99TV8zAbHZXZ6CvGtepvw1w0fY1pTKar3pRyGpB+gGijj+9a46E3yzlNx5ZBgOahDxGlk8Lg0/4h+AhGQ4NcRheXPHQGQXHOX7oGjeEgIvkdM0YmbUCkUhURWIqATEaXoqL3REAEokBAGsIojNKiNmafPo6UuWix+Zneh5a5f7P4Un9DRqAw88xcFMJ7lEpucsLSVxEVdX41FqWmR6KtM/ANPIsw/D/40edOGom4CIPFwWHkyP6BIfvhRyccgZg8VERABERABESglghIIIzgaKYZXXRsJHItz9Pf6/JpBMKJh3YhagOU7b1v1LZFrkCAnTt/ygrJ+aTkkWt/SBvMYCv0FfzRx1/YiVMXnOTyIW1qIM1iCo1TZy85giG5qIjAYgIyGV1MRK9LITBvZCxT41JY6Rj/CEgg9I+tLzUX0oguevELK0TQF89JE3D5rBWmJ3xho0pdEICQnr7CNCbRHJvM3VuW6+91AUCnLiRAYfBx71P74+9/DF+6B3D9le8v+ZDD7bsP7fs//AwpK6L5XVk4znruLQGZjHrLMy61NTQ2WEO9luNxGe+w9lMzMKwj84p2cdGbvnHlFZ+G/+30g7vGPHcq4SJQmJlAcBZo2SpIih2GnuTGRpGXU2ajXoxFFv6BjB76Jz/81AaHRiKZSsILDq+qw0lTkYxWsvVX9aWU9+ug9mpQlNVSUOkYEaiIQMKoHZSGsCJ4OskzAhIIPUMZTEX0lcqNDAdzMR+uwoAlKZqNFqLlp+YDilBVmX18x9L37oaqTeU0htrn5NkTyM8p/65yuC0+NpPJ2pVrt+2jT0/Z5GT1ggslIIQsfNTVJZzUD0z/wEcdUows/HxxP/x83Yjd/NeRjmL16k4/LxOauslagXRKHA5nTa+FfYm0dJgIiECICCjKaIgGY6WmFDIpmzv1abSiiy7qVIHRRqHJafuZSUu0r170qV5WhYATAfYCzEXHq3J5ry7KvJy5gT5r2LHXqypjVQ+DxVy+dtNOnr5os0jUHmShkEeho61tlbU0Nzl/O9rb8LzZaQaFsHqaVD3L+U0tZhba7AL+zSLIC4XXJFJFpDMZm5metSwi5uZyeV+0mxvWr7UDe3caNWcqIiACIiACIlALBCQQRmgUcwNPLH0zuuaiRdTpe3eepQl4q/iW/laRAHP4Ma9lFP1SF2Kj2Wj6xiUJhAuhlPicyeavXr8TmDBIrVNrS7N1dXXaurU9tmFdj3V3r7b2tlZrwfv1+LyoCVypCxRkKfyxD6l02qYhEI5NTNrw8KiNjU/ayNi4MX0Ej3MbiJZte+PoIUdgXald+jyGBJwNi2e7FjHsvrosAiIQXQISCCMzdgWE1j8Hc9GhyLT4VQ1l4JL0pVPWuP8Nw6rvVYfp/YAIZHvvWvpO9NOBFDJpS575zFq/+T1LNLcERC/6l6FP3N37j+3zk+d81QzS7HNVa6uthQC4G/n8Nm1ab6s7O6wZGkGaf1ZaimakPJ8CWxfq3LJ5g6NMzEBjSAFxaGTUenv7kU9wwCaQZJ6axHIL27h75zYnF6Gb9r7qug0NDdbZ0VFRjkdqUylk+1Yk4/iGVhWLgAiIQBgISCAMwyiU0AYududOfgxz0ej73lETlbx42lq/+wtW17WmhN7rEN8IQBhIXz8f2eiii7mkoCHMDcJsdNvuxR/p9SsI9D7pd3wG/cqvR0Glq6vD9uzabvv37LSeni5rbmp6RWu8e5siZlNjo/V0dzmPfbt3GPvInIJ37j6yx339EBZnSjYrpTnr0df2W1NTo3eNXFDTjm2bbP3PfnvBO6U/pUa1FcK2b6Vyed23JoWx4vl9DcEK49jUcpu0X1PLoxtc3yQQBsfa1ZXyw/2WuRd9LU4RAgOY5HrvSSAsAqnS30JyFtFFT0feXLSILzc8ZJlblyUQFoGs8JcmlSdOX7BJ5Aj1ujiCILR1+/fthM/dLkcoozavWoXtoSaNj53bt0BrOOakkLiDNBKTCHZFk9NXFZ57cP9u27Rh3asOcf1+I4RXPlSiS0BpJ6I7dlFtOS08GAxMRQTcEpBA6JZgIOdDi3PjomWHBgO5WhAXyU2MOX1qPPSmWV31FolB9DXM18j1P7b07ethbmJZbXM06Wc+tdYPv2fWoMX1cvCSSJ1w8sxFe9I34Nq3bvF12la1QhDcZUcO7bM1Pd3zAWEWH1TF1xS8Nm9cbwwQc/jAHrtx655dv3nXmHyeC6zFpXt1lx09vN/xa1z8mV6LgAiIQDUJLHXPqmZ7dO1oEpBAGIFxc3yjzn6OkPq1k/uqgB2t5PmTtuo7f0XRRqs1B2kuehXJ6EdHqtUCX66bvoqIqSP9Vr9hmy/110Kl1IZdvnYLSefvL6sZK7ev1KRthm/gW28csR3bNkPjFe6fGJpaMqhNDwLa0KT1/KVrdu8BNknSz30M6dv3BtJMdMckzUS5Y67jnxOY9y2VyehzInomAiIQFQLh/rWOCkWf25kfGrDUtUs+XyX46tN3bln2yX1rPHA8+IvrimZZ+KWeQe6+GvBLXTic2YF++EVetFYJhAuxvPC8r3/QLly67qmpEYPDHD6w195+84hjlulH4JUXOuHhC6a0oCC7Zs1qJ8DOmXOXbRgmpdx534oANdR2Rqk/HqJRVWUQmNfUvKxhLqMKHSoCIiACVSHgY1iyqvSnJi/qmItikVtrhXnv0tfOKUl9lQY2NzwAv9Q7Vbq6f5dlkvq5Lz4yy+f8u0iEa6ap6Omzl21q2rvE8+0IuPL+u8ftg/ffQqTM9sgKTwx2cwi+gt/79oe2H7kG2+FvePz1w4iOqqi1EZ7yaroIiIAIiMAKBCQQrgCo2h8zGX3yHLQ46doxFy0yLSD0e+oCApogsIlKwARoLgotWhZCYS2W9HVEG0UgJpUXCVCDcefeQ3uMyKJ46kmhf92HH7xjx1476ET19KTSKlZCTeDaNd32zQ/etZ/85vu2bcvGKrZGl44SAUUZjdJoqa0iIAILCUggXEgjhM/zI4NIRn8ZWjSPVm8h62Pq9k1jYBOVYAkUcvTh/AIbDelgLxzQ1bKDMBtFICaVFwkwqui5i9dgKvrcR+7FI8p7tRqJ5X/8w6/aAZhUNjTUVnCo9vZVtnvXNkX+LG9KxProGv2ZjvWYqvMiEBcCEghDPtKZuzcs298X8lZW3jwGNElfOYMKalPgrZyMv2dyoyGF4Cu1Wqh9Tp5C3s6sN4JPLXDKwZT26o3bNjI67kl3aE75Y99417YjeIz86zxBqkpqgoB+y2piGNUJEYgZAQWVCfOAU4tz+hPLJ5NhbqWrtn2ZpP7bf9kSzatc1aWTSyeQvnXVsgNPSz8hgkemrl6yPExi6zdujWDrvW/yMATB23ceehJVtBU+dV+Dz+DOHVslDHo/VKoxqgScAKOKMurV8NHEnRtZOQQ+4/NUKm2ZbNZ5z6zIueCkg2GOUwa2YuRgRjumxYI2qkobiXy+YFmsN8mZjLNgXMzLSq58tIAteTIAF1+LbWlso3SUBMIQj1ZubNhSV87XrLloEX365lXLD/Za/bb9xbf010cC1JolzzGNSe1uNBCfYzYKc+tWCYTOAuomcu1NTLpPQM+F1vFjh51E7VoU+PhFVdWRI1AUUSLX8BA0mAII070wF+jU1IyNjk/YDJ6PT0zhvRlHWKGpezY7LyA+lwfnBcI6CCpNyC/K+9Oq1lZb3dVh3LhiWpmuzg4n8nED0uDUzTt6hqDH1WtCHsI1g4uNjU3YwOCw87swCneCudk5S2EMKBwWICSScT3yRFPAbmpqdITtjo42pODpcpjS15qm9Qy6RSFRJdoEJBCGePyy925Y5mlviFvoTdOyw8MIcHLeWrfuww1IP6neUH11LYXJMUR3rX3/Ogq8yYunreVrP2GJmCep5489g8kUd31fPTuW/4QCIPP1vXHsEBZe+vlYnlZ5n2aQmzWFXLOVGBxywdba0oKFW/jun1xgTk3PlAejzKO5GG1taa661mLeh7CSESyzwzVyOLV9FP4olDzpG7ChkVEIJ9MQDKmlyjlaQTdd5f2KAmJLc7OTR3TTxvWOiTuFxKLGy039UTuXAnX/wLA9fNxnj3qf2hiEbrKmhrDU8nRgyDmUmsJGCOCMML1+3Ron+NaWzRshKLY7AmSp9em48BDQL3p4xuLFlmC3LHnmk5pKRv9iB5+/cqKNIkl9y4d/UWajz7H49ixz71psAvmkrpyz/Pio1a/d4BvPsFfsRBa9+8BZaLlt65qe1Ugv8aaz+HZbl85/kcAjLNI+/eKsowlxtB/FNRplPD4v/uVpxefP5L813avtx7/5nrM448eel2JbKqj4yrVbdgfzz9nsK/aD9RSfF/8ufo+vF/az2IaF7z07Z/26Hvv2j33gaDH4lkp4CVDQGx0bdwSSh4+eGE3Z5+bm5ue9x83mvY8bLXxwU4JCEPOvdnd32e6dW23v7h3Wg3sazUxruVDTeu/BY7t196E9RQ5amoW6LTQvzeUQBR+aRuZsvQELFAqHWxGVed+eHcjfutFasEmjEh0CEghDOlb58RFLIiVDXErq5jXLDz2xemoJVfwjgNx8yZMfWQ6mIXEo2b7Hlr591VpjLBDOzMzZ3XuPXGsHudP+5huvWQ8WUyreE6C2ZHxi0tGMlFt7I7S1brW/y17zmeC57DGv+HBuLokFv7/m6dQOFirSrb6i0RW+PW/g4gJWhdcN+2kUzGbwm8NND1oqUBs46/OceBWTFDRi/dBy8XHxyk0Ihtvs9SMHYVraXXOaLZrgPnjUa6fPXbHBoRFf7xG8/0xOTdu1G3fs1p37tnHDOofrzu1bJBi+ajKG7H0JhCEbkGJzMg9uWA6h8+NSMgMDSBNwwVq37MGucG3v1lVzTLnRkLp0tub9UouMHbPR059a6zsfwhkinj4Oj3r7bAS+Im4Lf9gP7N3lthqdLwI1S0Amoy8OLYWEcZir34KG+Da0U4xwzCAxYSnUnF2+etMRmigUvnZon39a9gA7TQGcWrtTZy/ZvfvYFPUozVCpXaAWuBe5bmmeun3rJnv96EH83eyY75Zah44LnoAEwuCZr3xFOPSmzp+AFic+CdsL8J1hkvqWD37KEi2KNrryJKnsiCw2GjJPn1R2chTPwg9j6jLM8CAI169ZH8UeuGozfUZoKsSocW4K/W1eP3JIJnluIOpcEYgJAfqkTUxO2vWbdx1TQgazKsdPLWhM9GM8ceqCPYYQ8/47x23TxnVV90etlAHNY6mhO3X2suMjSOGwWoW/O/z9od/h4QN7YWFy2Do72qvVHF13BQISCFcAVI2P85OjyM13FtGw8tBqVKMF1blmGhEhM9fPWV3Xmuo0oNavCs3r3KffN0vPGQKHxaYwgm3u4c1YCoSj0Az2wWfEbdmxbYtt2RxfP0y3/HR+PAjIZNQcXz2aDVIYZNCSMAuCC2clNZePHj+xCUQ1/eC9txw/OAZrilKhP9/JMxeh9byFaKHu/QS96jtNxs9fvOoED/oa2G5GcJ8wBsDyqr9RrUcCYRhHbvSadayHg+4sBEL8F5dSSDy0yX/0W5ZOxkhaCXBw6+oT1rl62tZsi9GkojtP+4zVT34EM9kP5gNbBMi8mpfizjCFwblZd/5bDAxw9MgBRJTTz0U1x7Oq166ekqGq3S734vPKmHjCor8atUFnL1yFv9pwZATBhWPM8aMf7599dMLmIFwdObzPGiLiajAJLeenJ844prm++hMvBFbGc6a66O3rtz/+/kf21bffsEMH9siEtAx+QRyqX/ggKJdzjXzGEsOfW+OWaSukcXcaKefkqB+bs/TMhM1NYlcunr+pvg5gfWvBGtflY6UdtCbIgHuAdRp+k8lRs9b4aJ8Z7v8xouplXfrs0PdjM0yoVGJMQHFSYjz4y3edG09D8Fc7e/6K3b3/yJMIlstf0f9PqdH6/AtYKyGNyxH4FYZdU0hfyB998oXdf9DrOlWH33QnkVbk489OO/km30KQMuY3VAkHAQmE4RiH562YG7XC8DmzurwltkIuohthPAJCOgya29B1KAjz7lyenvPUsy8JFNl++UatP8HdLbENnaTLwvRDs9HrZlugJYxJ4U734BCEYBeFWsGD+3c5+aZcVKNTRSAeBBzBOT7SM4OVMGroafir0Tw9jJqpSifeXDLpBGXpbG+3Hds3h9ankAL5/Ydwi/Agb2OlrMo9L4mYEWfOX3aE17ffPGJNyGeoUn0C0TKQrj4v31tQGL2Jxeuj+esghUtiO57G6LtS31iwhiapB72eaHSFaG6PEVeuydbi0YMHn2dnrPD0JHZY4mMuOzg4glDv7gJTMe/g5k3yHcQMUhEBEVhAgHn9Tp6+aD/6+KQT0bKWhMFiN+lP+PnJc/CFnCy+Fcq/DCRDk8woFZoYn71wxS5evuHaiiVK/Q5zWyUQhml0kCPOnp7A4nXqeas6sZ7leiwmI0XtYHNbtG5szwcrvM8amiFo4xGbAsvQxBb0dsFmfWEQAmHSffqFKDCkmSj9Bxn+203ZgVQTq1pb3FShc0UgPgScW2zt32epPfvk8zOOvyADmdRyGUD+PvpFUuhS8ZYAhcIzMDW+B1PjqAm03pIIR20xETPCAXvFVtBcdBDJ6BdqMbig3YhHjCLmN8PEL05RMFecFx4cECtzUWQtSWwGtMWxiabuWWH0hgc0w18FF2kjo2OuGspgMnt2bg+tqZSrzulkEfCNwIJdKN+uUe2KE85mUy1qBReTZR+ZxoEBUVS8JzA7O2effXHe+p4OeF+5aiyLgATCsnD5e3CBPk7T91++CEYpQaFw9csf1eI7jXHTZvk8iI7WNS7mokW/waWUWpnpeQ08NfE1Xui4z4eb0r26y3q6u9xUoXNFIFYE5tNO1H6XW7FZdAyRh1etWupG677/CYDko6Gh3nittlWtSz5W4f2mpiYn6AuP96twg+0SEthTo6XiPQGmJ6Ef6jSC46hUj4CCylSP/YtXplaw73NDNvoX3y++YrREBMgoMII8HzVckC7PmlqRLu8VKGq46750LTbmotAIMhCTwcx66VKABv6kJZLQnK2ig2HtlsHhEWPABzdl86b11oyE9Coi4IZAV2eHdXQgWpiPhb6udT4KBKU2fd6Nq/ZNRsmDeUn37NqBnHc3XUe2rK+vcwJXdbS3OYJfD8azvW2VtTQ3O3NnVWsrBMSXR4EBVSansPmFlAsTk1M2hCBaFC6YMoJ5Bb0sjNj8pG/Adu3kj0ztFEf4RnfqkF6DUVUXCtbkywddD/jXr8K6Hz3uc/InvvP2MauPWP5Hv7gEXa8EwqCJv+p6yXFEF0Vo/IXmoouPhZDkRB59gA9q3JydAVBmxhLL4liMR6+XJkCfzJo3weVigQFkKOctsXD4kszUfSuM37FEDQuENHFixL9crvIAOvxB3rShtoXmL+eEnvhK4NDBPfb28SO+XoPCYKMiFfrKeHHljQ0NjpbwcW9fRUFXGnB+Z2e7bVi31tav68H9Zp0j/FEIpGaw1FQP69fNpxLK4b5HDR6jK1O4YAoMCohu0+4U+826b8J0dOuWjZHPycrciqvaWo0RVLthBUJNa0f7KjzarBka12LhpiIF7ikI3DMw7RweGXWEb2pMvTYX5jhduXbLtm/bZFsUyKw4BIH+lUAYKO5XX6wwfhfmog9efUDxk248mcGD5taVr/eKtYX2r2M2imijmeRyq/vQNj80DeNGG7WtNV/wvXC0gysZwWdhRtl/Cn65X6lZR1UGPxgeHnO1o9uKQDJr11DCVhEBdwS4+Fy4yHRXW7jPnteuxOc3a93aHifB+Mkzl0rSyHEuUAhk5OLdO7fZhvVrHI1gPd53W7iJRfPS1pZ1tnH9WiSV32937j60C5evw58aG+4uNVw8n36EFDjZ76iVogC+BZYfOxEsbE1Pt8O+EXkAS9HIUQBMpdKOJvbxk36H7eAwBO6sd9oJCp8XLl23dfjtUX7C4GeYBMLgmb98RWoFneiiWKyuVPBbw4AZBVpDDK50cHQ/r8PMbEJwkEyNm8f6PUI0F21s8c/Uw+/2l1Q/NecMIlNKehZ8cQoDMBtN/QqS1EfvR70UHty95W6um7J6dadjsuWmDp0rAnEjMC901Pj9dsGgUjN7+OBeewiNHM0plyoUkml6vgFC2v69O23Hts2OJqpUDeBSda70Hq9Jv0P6OVKj98XpC06+RLdRl6eRaoOmo2vXdL9gWrlSe6r1OTkwOBg1bgeQT3bzxvXOfb0S9jyHG4V8bIQ297VD++zhoyd26cpNezowVNKGQCkcmFPxERjv3b29lMN1jIcEJBB6CLPiqhAKvzAIrcVy5qILK6evFILMFLjmW5ChYuEhtfC8BWajs+MyG3UzlhSqa9pctOg3iH6WXKbuWmHstiVa3y35lCgdODs3Z3y4Kau7OqwBSelVREAERGA5Ap0d7Xb08AEbgrZoYdAVRxiB+ScFstcO7XW0gi0QDPl+UIXXon/pj33jq44gxJx3GRcaLZrhUztG7WPYNVg0vaX55dHXDkCAW+v4Y3rJnemIDu7f7YzrpSs37DLMPefm3O/gUwt57cZt2wofVQqzKsER0C9+cKxfeaXC2B2zSZiMllMQ3MvRFN7DSe5iR5Rz1UCPpWaLSeplNloZdgbncZLRB/f7W1lDKz2LwiA1g+UGwsxMQiP/hdkmmI0SUo2VSexiu9kJ507wurVrSjIjqjF06o4IuCIwL+vU6g13aTQUuhhoZcf9LY4WjlpSagR3bt8Kc9LdTvAZCifVLNRqvfuV1y2VTtvV67fh/1a5FpdBa2iBEVaBkAF6qME7fuyw7di+2XNBcOE4cuy7YAL83jtvGKNSnzh13vE5XHhMJc97oW1+2j/kzKtKztc5lRGQQFgZN+/OYgj8AeQezFSQMJtJ67dBU/gQzaEJaY0VJ10CgtPJbLSygaUwXdPmokzDwvyc5cp0NBtltNHUr5q11F4ul7GxSVfmOwzo0OlzVMjKZrTOEoFwE3Dpphbuzi3TOmqL3jh2EFrCEWtDdNBj0Ert2bXdEQyXOS3QjyiUvvPWMce/miaOlRamRqBQ2A2z+rAVmsnSlPP1IwcdX82g2kf/RJoOU/D+4UcnXAuFdHu4dfeBbdmywZoULCqoYSx7KRVYw2JzoRQEQcdctAKJjhuRdINaKbJiVGGif4yQWYNKnEBGpKaT0bfPb4a8lHy+VLKTt2E2Cs18jRXuzs8lk64CKDAACFMFqIiACFRCoHLtUyVXC8s5DBTzkz/2gf3Ud77pCAdhTFmzuqvTmNbATZAjBu1ikJowFWrqGG312z/+gb3/7vFAhcEiB6as2LVji6MtdGvqyd8xRoodQ7RsleAIlLu3HlzLYnKlwigWplicVlwwgokt0BLWnqLDQeKYjSIwikp5BL40Fy3vtGgcDesjJ6Lo8+jY5beb0UaZ97PGCnNvzbr046ApVBgXczU2VOpOLRLgJu2yeW9qsdPzfWIE0e1bNzkBY8LcS0bYpF9jpYXCCgVCr9JZVNqOhecxYA+FwV07tpoXEVsX1l3Oc7ob0K+QGkqarropM7Ozjr8measEQ8DdiAXTxtq9Cs1FB5F7MO1ytwmGv3UQCs3f3L9VGQfHbLScgCFVaWX4LlqPOUGT0Zor3ADZil65tdZhAKfhM2ap2orKxKAHMzBpclPakYtKZjpuCOpcERCBsBKgeeOBfbucXIeVtJECCtMjeJ34vpK28BxqBxk0JiyRT8n3yOF90FjSdK3ywt+yB4hiSvNRlWAISCAMhvPSV0lNWmHoPNR72aU/L+ddCE2JTTih1rxCsePatEpmo+VMBR5LZhQKa6pw950+g8g56EUpTEA7P8GoTLVTmCvK7Q8oc3nxR11FBESgPAIFBiuRRqM8aFU4egsiWDIJe6WF99iFEVUrrcer8ygUOsppryp0WQ9dDl5Hyo9Gl5Gqh0fGbALCt0owBPSrHwznJa9SGL9vNnFjyc8qehML5QRky8IjnA0FSK0Ux2y0EdFGU2G65YWXLn4bjCk7QvUL4QUuuLUx3Ypnns8ZaOafnjRbdxQV18beWBr+LRQK3RRqBxPwBwmqcCeYQRrcttvv9nKd34FgOwygEbuCvqusTCCH714W81kl3AQYfIVmlmPjiDhdQWG00mQq5UqorOCykTmFAurundvs6o07Tt7GShvONBb9iDa6EWOl4j8BCYT+M176CjRZ64fJWmZs6c8reZdrOH5vuKEygkeN/IhT09WMICIZWQ5gUFcu9Ywu2lojg1/sLjXgO/HCjd8gTn+hON9B+BEe+EVI0OXmrnihptC8yGQyyLNVQYCqZz3gD3lLa3OgewmzCOH+b/70o/ncicVpy12NxZqWld7j/Y/nF/+yTyudw2NYFh5XPL/4t/g5Kv/wa+8glP4e55RY/Y8sVFYkQHPCQqn5hFesTQf4RYB+dsxPyPtdJT5qaeTKY3AZlVcTYMRRRprtezoA89rKNkm4SfgE578GE9RGWa28GrZHn0gg9Ahk2dWkZ2EuehqaPI9vKs98rJyk9TNltyqcJ2AxwmijM2NKUl/KADW1QolWS99sCIEMnGQ+KGacgE7j96B5PF4K2tAfk4ZAmHWReJkLpNaWFmehFFRn81hAMxDOzMxcUJes6DoMmFDpwqaiC+okERAB3wgwKicFw0rul9yrcsyDfWtdbVTMqKNMWj/qIlooA/gk51LW2FFLi5pwjm9t2EmFk+2yrSpMPUYy+ps4prglvuzh5X3IBfR2nALBoFZKAyKN1sNsVGV5Ak50UabqqJUdffTDST7vVxTdNMJaj1x4WRu1PObQfprHTmzOpYaQPoQUDFVEQAREoFYJMJJyPTZ5KincxGJ6H5XlCXR2tDumuW5+T6anZ1znNVy+lfq0SKCyb0PxbP2tnADNRVO06/Sp0N+KQWbqfao/4GppNtqkaKMrUienmjIXXYcur8HDL/mEAZ0G8V3M1oY6Pe+YrFW+cUI5sJphy1ec4DpABERABDwgQF/phgqDnlBDGKa0Ex7g8KUK/pZsRQAfN78pqXTGhkZGfWmfKn2RgATCF3kE8wrmotb/GbQSHpuLLm49F9KVp9tZXFt1X2OhykApNRL7wzeWTfAdrG/0rfpgK4bfqP+bGvD5GbmM4E73g+2bT1ejzwV65FPtqja2BDSlYjv0tdpxRsCUX5q/o0vNIIP3tMIvvdLC37SJyenQBx2rtH9hOk8CYRVGozD50Arj1/2/MoSohIdh+v1v8PJXYLTRmkulsHyXy/qU2p1mCs34G/lCs+dt6EXlvyOlI0iPWWHgHI6vgVUvt65VRMBrArVwT/GaieoTARFYkQDTe6zucpc4eBzRYLMuXCFWbKQOcAhIIAx6IjAC2cBZJKP30Vx0YZ+gLaoVf0IGSmF+PZWlCVAzWBPmohhnJ/k8NISBlHwGGvsv8J10l9A9kLaueBGt3FdEpANEQAREQAQCIUBfzdXIS+imTMGPUCa6bgiWdq4EwtI4eXdUZg7aCOQ+4yI0qAIti6NtibgpITVfMht99aShMBh5c1HKM0yd4qff4EsIYWQ5jnyg009e+iRqbzjmotozidqwqb0iIAIiUJMEEvDz6YRAyCjNlRbmfGROQhV/CVQ+Qv62q2ZrL0z2mo0FYC66mCDSrCU24M2Ij/i80KMV7+LhpbBM7WnkzUUhCDopJoJWdKWGrMBATyoiIAIiIAIiIAKeEKirS1j36k5XAmEqmTLmq1XxlwCMs1QCI0D/nkGEuE8NBHbJLy/EBTYDzDCOTf+X70buCc1GG5GPLqsk9S+MHTWDLUg3EenC5POb0YNqRMZ1zEaRpH7fX6LdbWQxOuG9gxamI0tLDRcBEYgKASaQf/5gqwvPzAgTSBIPi6tFP38JCCKMJMq/zj/slnLDlPdIN2kQosIrTO2k2WhDQ2U5H9mPXL441mHqVe21RQJhkGPqmIvCVymfDvKqz68F7SC1hE7SeqRfi2LhDZ1mo8lJJKlf9AMQxf541WbmaYx0MnrciRyzZgj71SpOoKepPkv07KlWE1xfl3m1tNhxjVEViIAIVIEABT6mzslmspZGuoFUOm30H6O5IB9TM7OWRP4/BhjJQ0hI43OuA1LplHPewiY3IOVBU1MTIonWO2kPGFG0pbXF2le1WlvbfA6rbM7nSO8LGxTj56vAvbmpEWNX2U5+AbE3aDaq4i8BCYT+8n2h9sIUfJTGrrzwXuAv6E+IpPWF27hyRE2yi75y2SrJ1YGP2QoXpJDczGT0UTUH5kYFNYPuApGtQKmEj5ODZkPQ4PfsxsHRVLM5eyRuNkpwbg7J7VVEQAREIAgCuVwOi/00UgtM2cjImA0Nj9n0zIyNT0xZCu9TMMxkswu0ifKL8QAAQABJREFUg5Xf4IraQZoxNkBApECp4j+BlpZmCOWVixvcKEglKfzTLSaav83+U3Z/hcpHyP21Y1YDbmKDFyGEVcFcdDFpWMQximPhAT6I4AaZE00TKSiyad0YOLSRjr7KIaRvKxPQV3s4qbnvh9no7u9F1myUGsK6ekjYFcas4g8ud+D1w4v5qCICIuALAUaMnIDANzA4bE8HhmxwcMQmp6YdDZKf0SR5X+MDqe2UxsCXkV260jrsVtdDCK+0cMzSNAtW8ZWABEJf8S6oPINFVv+J6pmLLmiK83Q1/s9FOOXTiCkEihqxuSncYCrfLHQw1ML/mJ+xAXn7IlkQjTpB39Zq+A0uAawwegnRRmE22h1Ns1H6aXDnG0ZUS/Ru5bcYpXQOpjlBC4TcsXcThW7lnj0/gomOVURABIIlwO/dzMycPXk6YHfvP7Kn/UPQBM7CIiEXbEN0tcAJ0I+zESajlRaaB1NbDLkQGsJKa9F5KxGQQLgSIY8+L0whkotjLhoSCYZmepsgT9FiYhSPkDSrVNyMqEkLhFzMN40c4ZjJ6DGekSvwF3TyDVb+O+F9l+ewQ8Ik9athNhrBXx76zDQ1Vn5b5w/v3Oy8htB7uEvXSP+Sb339qwgQ4b+5wiz6duLUeWdxsXRr9K4IiICXBGiCPjY+Ybfu3Icg+Nh5noGPoEq8CNTXudv15Salir8EKl85+Nuumqu9MAjNQzWiiy5HEqPvmI7Sl3BmuQPD9xk1Yk3IuzeXifd2kWMuCg6RK/htCDT5fKmAHLNRBH7a81MwG50PPFDqqWE4rgm7sG41bTTNCfK3txGRAPft2REIPvopnT53WQJhILR1kTgT4AJ+fHzSbkIQvHHrHnwCJ+WfHNMJwd+kelivqISbgATCIMYnA/OtfiwycyGM4vIsaX3hHkBEyb8aciADqcwh2micS0NTBJPRc8hoJkqz5dAVGE2OXzNzoo3uDV3rVmoQfQjrEV3PTaFpDv14aH6qIgIiIALlEmAgmNv3HtrFy9cRJGZU/nrlAqyx4+kS0ILUE25KBLe93XS3KudKIAwAe2EaZmhj0BCG1S6TflzFIDMRcq/50mw0ptYntGhs7US6iait27sw39bj6xBWM9fZPgSAgtko/QgjZjbq/PAiopubwuAOjL7n9gfcTRt0bsgIaDUWsgEJb3MmJ6ftizMX7Padh0oVEN5hCrxlbk0+4731H8xwhXVJFkzvA7kKfkkHLyO6KBaZYS38pvXgsRaPCH3rnGijUTSX9GgeJCAINsIPL1KlHVNsJ1ocJr9BNOeF4piNnkQYurkX3o7CC4b27mhvc9VU7u7zoSICXxKI0O/Cl23Wk0AJcMHf29dvf/yDj+3q9dsSBgOlH+6L5eFHytQibgoDnqn4S0ACob98Ef4dEfsGaC4a8sUlZkJiC2BgwR6VwkAqzQyoEtPFihNdFAnpI1NgMeL4DbqzHAmgu3krMAAU84ZGrNQj5QSDtLgpFAbpa1eLhTms6uJ6w6jFAVWfQkGAwuCj3qf2w4++sCd9A07S+FA0TI0IBYE85geFQjeFrhC6dbshuPK5EghXZuTqiMLMMKJ4Iv9gFHY3oLVh0nqLUCwNmo0ysEocS6SS0XPDgWai1U4+X+pEQZL6wjCEwgiWzs52+BFWfmtnEuipqYhFmSpxnBqwqGh26ctS4qV0mAjEgkBRGPz4s9M2jMTybk0DYwEthp3MFyoXCBmUphkRtFX8JRDTpbS/UF+offy22VyENA2wNktshvh6H72IQHqgBgix1JTlYhZtlH6DzVER3KnBpTDIQDJRKXmkXhg4Y4ndiDYasSSPNBmtwwRhuPdKChd0QyOj2OXPu45YWsn1fT0HW8zUElZaKCyTj5s6Kr22zhOBMBJg0JhPPj/jBI/xWxikYMAHU+swxU4D/jKQ1nKFbaLVA7+7GURQ5n2N6XWUj3Q5at5+RtYMVuamuA2W5ubacTlXAqGfI428WoX+MxCsIrbb3g2hEIFRC72AE3KLRMdsFNFGU9OJQEPl+zltSqmbKTcYYTQSpZh8fvnf7XB1hbuZI+etMDNoiS5EXIpQaVvVao1YKHHxU0nhAmp0dALnZ6VNWwRwdnYungJhRG41i4ZLL30mwETzJ05fsMGhEc81g9x04X2sbdUq6+7ush48uld3WmdHuxPwqrm5GUJh44oCoSOMUCDE/ZApdeZN4qdxjxu3G7fvWTKJxY6KvwRw/3CzWfA8Smnlm3n+drA2apdA6OM4FlLTZuPXcYWI/ZryO7cOj1k8IpC0vqkVASsxk+OUpN4xF41AdNEC3NnqdmIeRdHaY+4pvgN9ZhETCKkh7OxoMwovlZYx5AybnpmVQLgIoJtFzaKqovVS67BojVcArc0hNc2lqzft/oNeV4v9xU2lSXf36i7bumWjbd+6yXm+alULtIIwB6qwrMIm2eLC+xuD4EggXEzG+9dZKEdy0BJWWhLY+W+Fb7wL445KLx2r8yQQ+jncOajIUyN+XsG/ujEzEtsgykYgaX09NGWNCK4SF7NRBJK0piiYi+L3uw5zyNzFOPFvjpdS88xEKUeF6hgmem9npNEB+C9XWObmkjYyOmZrekKZLLLCXuk0ERABrwgMDo3atRt3YJrujW9JK9LlbNu62fbv3WmbN62HZrC19kzWvYIfsXrmoIXNZiufJxQEaSqs4i8BCYT+8o127dDqOELhPXTDnfm3rxwcfzqajc7Ew2y0AcIvheBQl6KWOeryhEeLnSDHignl167ptrv3HlW8c08zq34IlPv27JS/XJCDp2uJQAQI0PTyyvVbnkQj5kJ/44Z19vbx1yAQboI5qLs8qhHAF7smUgtbqQsDYXGTU8HA/J82Egj9ZExJpT7K6hHAeeb/VXiC55Vv8PhJ2am7ERYh9CcshLiNXkGg/2DoN8uQ0zKxCT2OuqnZKnwBIlboe9MDk6vGhgbHZ6bS5vc+6beUk6BeC7RKGeo8EahFAgODw56YitIM9NCBPfb2m0dtdVf07rW1OLZ+9IkCYc6FhrAFZsR8qPhLQDpYH/kmmmC21bHHxysEUDUX9IwQuSGAa7m4BLVmfNR6mdeGopdhFrSQy5KRai0CPo7LzpdG5MhoXbPsIWH9kKaeLTDBclNGxydsZGTcTRU6VwREoMYI0PTvxq17jo+xm65R4/PO28fs6++/LWHQDciQn0trk4nJaWMuwkoLNw4YREjFXwISCP3k29BsiQ3vwPg54lpCzJIEBcIQm/8VzUb9HM4w1E1fyVALvvAbpJmxRf7eDYm7+5glOtmZ6JUOROJjZD43hWHCHz7uq9js1M21/TqX2lOljPCLruqNA4Gp6WkEYxlwdV9gCoFjrx2w48cOyxSwxicNBcHJySlXaT7a2la5yq1b44g9654EQs9QLlERFx9bvwpB6vASH0bsLS70t6DNIV7oN0MhS8GwZgtklCb4Soa2j88CERk0hJEvjR2W2PXTBB7JrnBHdd3aHpgWu1MlP3jUawwwUyuFPJicXkUERKAyAn1PB20KGh83ZevmDfbWG0ectBFu6tG54SfANB+T0+5Sr3V1dui+HcBQSyD0G3LbBkvs+2V4xcL8LOoFa+MEU7KFdNY4ZqNhD7biYg5QEHSii7pb47towTKnsk20ruzBI4ztW6bpL32UqMfmx7fxeP+lj6LyRn19nW3ZtAGh2t35XQzDZLSvfygq3VY7RUAEfCSQy+VxPxi0rItgW/QFewOawba2l1NB+Nh0VV0lAqlUyqZdCIS06GjHXJFlh/8DGNKlvf8dD+wK1BLu+glLHPhVs4YaUJ0gab1txCOEM8cxG22v3E49sDlR4YUan6XXqPB0f0/DfoejQQ7hvCir4wmoOTf9pNnR/wja8GgHOViHSKPt7e7ykzAy3E0kb2aSehUREIF4E2CQKaabcJOPc+uWTU5+wXiTjE/vx8YnkRO3ciuTBgRHW4PfMgmE/s+ZqC/f/CfkxRUakFDzyK9b4ujfNWujT1KEVSiYMU70yJD6E9ay2WjjqpCai0LmcDTHUY9ZXL/KErt/weq+8tuWiFgy+qVuUxQGt8A0y+0P6YNHTxytwFLXiNt7bhbCcWOl/tYegampaVepJpg+YO/u7TIVrb2psWSPeL8cHhlzFe26uakR2mR3G5tLNk5vvkRAAuFLSHx6gwFmDv27lvjqP0TUTvgVUhMR1QLTRSdwSAitYJmfr6EGzUaZUqOZ98Sw7SXQb5BmxNF0tXv2DQRUbNQkXv+7lnjztxAZmCrw6BcGbtiORM/cYXVTGDL88tWbsdcScnGTRKAdCYVuZpPOjTIBRot0Yy1A07+NG5CTSCUWBDLZrD2FywEjjVZaGCCtoz3SC4xKux74eRIIg0QOm8bEpres7v3/xhJ74FcYZRNSBJdxTAQRbCZMpR5r32YEXqm1QiG3sSVk/Spqi0O4MVDy+Nc1IoLue5Z4/7+3xMFfwuSpAbPuBZ3ftHGdMQWF20ItYW9fv9tqIn9+oVD5wibynVcHYk9gEhrCnAv/wZ7u1Vjc19Y9NvaTYhkAMzOzNjLmLnURf7+aGt1tai7TRH20gIAEwgUwgnkKbUT7Jku89Z9Y4vhvQxuxC5cNm9qnRBK4ryd24NiQBe1jkvrQRuIsEe3iw0JnCsspSzljHR5RvYsg0FNi/1+3xAf/HYTCN9CP2vvRoanNtq2438CX2U1hCooz56/YXLJyXxA31w/LuS5SaYWlC2qHCFRMgPeBSjXkvAd1dLQpfUDF9KN3ohORdqryCKP1dXW2Yf0azJmQLTKjNxQltTiqS7mSOhfqgyC1JPb/ZWgm/hE0bT+Bxai7aIBV6WtRKGDi+hDNpCb42oU6V1+Zg+WYi1Lr6W5NX+ZVVzi8uBkQSRkKIDv2WuKd38GmzN9G8nlKtWGCuwL7Mj6uwyJs3+4d1trqPhfqkyf9du3GXVcJhstoui+HIsSXq6F2KVf70idVKgJBEKBmcBoan0oLBcJOmP/VYZGvUvsEaC7KPLZZ/K20NLc02/p1DF+uEgQBfTODoPyqa+AGmVh3xBLv/S4CzvwmcgowhGfECmaQE2QmRGaD/L1pqqGI1qEzF4Vs4fgNhsxcuKRvTj02Yrb/Bav7+v9oiZ3fhXY7ip0oqadfHrQWEdoYXMZtycEP5NyFq/AJGXRbVdXOb2iot5bmypOpxlJDCBmaO/WVFuaxdONDVOl1dZ63BOiwkEbU4UoLBcJWLPDdWitUen2dFyyBcUQXfdI34Oqiq7s6bXVXtKN9uwIQ8MmV3+UDbmhNX65ltSVe++vQWPwu8rgdxWo7YupxaIkcASEsQhgWMPQjrBWzUeYeDI01IwMKMYhM5O7RmBStiLh55DcQ2Om/wvfsADqC92JQGuF/cXDfbmtG/i+3hT5EJ05dsCkXeaXctsHN+dROuDE/iseMeZEwmbWuqvzmzkAk3ExQEQHcdAUhBgTy2DmjdtCtRnkTAhA1N7n/3YoBck+6KIHQE4weVMLgFjt/3Ore+4fwy/sZbMlW/gPsQWvKrwJCS2IzTguJCWEDArDUQrRRmou2hCW3In/LqWhyH6Ok/Pnl5gxC7HndEu/+A2y8/BrUxyFSZ7vpVxnn0o9wMxLVe1Ee9z61L05fNOYki12J4XqW2sEmpAuotMzMzrkKRFLpdXVe+AgULGSB0cKHqCZaxPQkN27CvcDFRlAT0k3QssXNBl5NwAywExIIA4S98qWw2uiGb9NX/guYkCJnYYs3C7iVr+vRET0QCregrhAsmuiDTM1a1Et9Y4gE2y4MLadklO4aDW2W2P1XrO4DRBHd+kGIVK3Bzkyaah0+sMda8Ndt4Y/8tRt3YD56zbIuIg66bUc1zo+jySg1hG5Sl3BxOOUisEQ1xlnX9J4Ag9HMzMxF2gfZeyq1VyN/H27ffWjDo+6ii/Z0dyGgjFKUBDlDorS0C5JLda/V3AFNxq9Y4mv/gyXWvo1VeEjUbitRoSDI7y8f1RYKcX0Gl6FyKMqFuQehPK5+KQaRCUNbSqKBCdC+C0Fj/jNssPznZp3bcVa1J2VJDfftoJ3bt9jWLRs9sZRloIAz5y/bhUvXYyUUxsTK+KU56Mb3aw55LAeHRl+qU2/EiwAFhfGJSVdao3gRi2ZvR8cm7Or1266sAhgMbduWTda2qgZ29SM0jBFfLkeIdLlNhSST2PQVRCGFCem+v2qGEPmRKEUfsxCkGmLePmrYolq4+HSE2mrLMTDhdzS/7pVLwQwFNlASmz60uq8hncT+vwIz5oiZX/tEqRnBVI4c2o/ADu4jjrKJ6XQGpqMX7OLlG66SVfvUXX+qje7txBWPbuzW19dXtlxgdMqHj5/EauPAFeyQnsyfocYGd5vTFAiZukKlNglkMlm7eOWGjbjUDjIq9s4dWyu+59QmXf97Vdkd3v926QpFAp3boOX4O3gwZ+EevFtt6aDYsGX+QouU2IbPqyxAMEl9lKON1jMZfWuVV6C4QySYVgTmouEvlKARoOngryFwzO8gR+IxNF63uOK4cYNhO3wJD+zfjdDv3txHuLj74tR5O3nmotFXrNZLlb+NVcPbjnyWbtIF9CJlyajLRWLVOq8LOwQ4/m0ugguxktHRCRsZGQsFUW5ocbNCxRsCNAm+ffcBfAfvVZyrstiSTRvX2zpEx1YJloBWS8HyruxqjfCD2vdzMCFFzsJN34ANYQSiLrVhLb4J3YXGsGoFa14GZImqmReF2apmRaDMwBR9G6s2gmVcGLeyrv2WeOvvWeKNv2XWFjH/2zJ66uZQRhw9fuyQda/2LjJQEkLhWaSj+Piz087OcKWJq930K4hz2S+aysZRKKQgsMqFMMBog1fhd5rLKdpoEHPVj2swXUSLy0jFyVTKbt97iO9RdQUxRkk+fe6STcq31bOp8rR/CBGozxvH2E1hAKv9e3d6EhXbTTvieK4EwqiMOk1I1x6eNyE99OvQvoU8WeczYcIRCr1RRlQ0Uow2WlWhqqJWQ5gGs6qbiyK1hDN+Yb9L1LdAI/1dmIhiw2TP9yBFV1k1XeGYB3Uaczu9ffyINXkYzpuCEqPK/fH3P7a79x8ZkxLXYnH6FUOJkAJhRxt2+SosFKY5P548HaiwBp0WBgLtHW3WwIhtFRbOgzsIODIwNFxhDe5PY368H338BQJj3ZWG0D1Op4ax8Qn76LNT8BGdcl0jI4vu2L4Za6AqLhxd9yKaFYR9qRdNqn62urXHEsf+5rOchcexYq/85uxnM526+X2muSGij1bL0rUB5qsUrKJWKMRWtd2QqZx8g6FWRmOCtW5CAKa/9Sy34P7qTbQITTD+0B7Yt8sO7t/lygxwcZeZe2pgcNj+5M8+tU8/P2tDw6MKILEYUkRfMwT8RuQEc7NIm0WC+hMnz9vEpPtFY0QxRr7Z3dhMopWBm0Jt8Zlzl20O8yHIQu00c+P92z/7xO7ce6R7kwfwi/f8H/zohFFD6LbwPvPaoX3wc5ffv1uWlZwvgbASatU+BxqQxPZvIZQ+gmbs/FkEzah859b3ruC3wxEsqhUsqqhpi9hMp+9g1TSbEEYdH9AQTysn8m7PG4gg+jtINv+r0JhHJOiS71+40i7ARd1bbxyxTRvXeb5Xk0RUyQuXr9u//pM/d3wLR8fGtfgqbVhCexQFwfXr1yD9hLsNyD5oCD89cVZCYWhHevmG0Wy4Df6kbsuDR0+ce0MQQiG1ko4QiqjI3//hZ9b3dNC1j5vb/tfC+TT7vf/gsf0pmD5+8tQ1U95jtm7eaMyZK+VgdWaIu62e6rRZVyUBfmMQSj/xNkLqdx+ywvXfN5vrxwch1IZR24QgM4V7aF4VAow1Q0PIaKPZFFWW4S8c2qr5PhIR04bQnzusuOqxe7jle1Z3DKbTXTvnvwtorkp5BJjn6b2vHLcffPS50YzKy8IQ84w0d/LMJWc3fu+eHbZ313b4Lna6ymnnpo3zYe+nEPxm1k01sT13/do11g6zUZqHVVqoUWDgCQb0+OC9t2wtAke40TpW2g6dVxkBRn/kfWPYZWAYChOXrtx0TMvfefOYdXYi1ZYPvzf0b374qNcuX70Fc+VBxwe4sp7rrIUEGEDsEqKJXgLXGWh8KXS7LZxbx44csFX4q1IdAhIIq8Pdu6syZ+HBXzJbfcAKl/6p2cgZSF4h9N+hPxrifBT60PWA/cmZx68J95isO19n78ZshZrq8K2sWnRRxBpJbEYDffhxXqHbJXyMRrVuQYClv2aJ/X8JUnMkQp+W0K/qHbJt60Z7/53jjk8N88V5XRjFb3BoxFlAXsHigf4he3Zvt3VrexyfNLfmZyu1l9efm0MevOERo1bi0eOnrgSala5Xy593wn9s86b18BOawAKw8p7SdO/+w15jYI83EOBo356dMBGrDb9fzjf6SU4jAXvUCgWy9eso9L9aA0j/wc2bNsBP+LFr/zv64165dhum5WN2/PXDtnPbZmtBShy3giGFEwosT/oG7NrNO9b7ZAAbEFXYiQ5wAmQx77jh5SYScCnNpUb3Ue9Tu3ztFrj2u54DxWuy3Qwkw9yDKtUjIIGweuy9uzIknsTmdyzRscMK137fCvf/H0g/3u74u24sBQwGfuTvZMD+5PyBae4o2NxUwgoRCHI3nz/RNfHyK4CJqJNv0J1VWPnXLeUMRtZd8zbMQ38DgW7gO1sXxkaW0pFwHVP8IeYC6sSpC74tnLhYmZyatsmb09AQPXQWnevX9diG9WudRWhHe5sT0r4eC06aJZarNeIikFoHLsjpq0Zhg+HtByCMUiCdmJzG5xlXgky4Ri741jQgB92unVvt9h1o+DIZVw3geNHH9Ecfn3TqO3hgD8zFNjjzgnMgqoVpWD769HQkm888k9/5ia/bgb27Xtl+fi+3YFOAQYb4fXZbeF942j/obBjRfH0PrAi2bdloHR3tCHrVaExQvlIpfvdTEPpolUA/wYfY/BmD1UPG5Txd6dph+Jz9vwufyAT+7cb3k0I9N1j4ffWi8L46NT3tCNY3bt+z/oEhR8PvRd2sg3OKY3/82GFnzL2qV/WUT8CbGVP+dXWG5wRw4+zYiHyFfxvmfgfnTUin70IlFyIJCH589Cd0FJjjngNYtsKmZ0nqo2A22txWhVQZRb/BV28OL8vX1w8bobbc9jMQBpFfsAM7iCUsEnxtT41VzgX4sdcOOD/y5y5e9T1xNCOSMkE1H3cQgr4eCUOLaQ2onVgNs9JmLAZbsKih+VAjwpA3Lwh3T3NDLry52KPwx2TIGQh7kxD6GEY+mUw6GgJqoiggqnhHYBt8fOhLSO2AF4VzgZpbatW6YDa4acM6W4eNgrVrepxFLdMcNOHBxe7iQq0INT+cD9zY6IYpYykCxOJ6vH5NISeqBbLFiqV7dZcTYMgLgbB4MX6XH0GQo1aPfoo0Ld8AwYb3Bd4P2lbhh2nRFHDuIxD6JiCYUvgbG5twfFN5P4jyGBSZlPN3Fht6l6/etBu37jrfozU93bDC4KPHYdjc3Iz7aRO+H4hWj99P/oQu3HTjuFOw5IPsZufmnHvowOD8htpTCIFTuLeSudeF9/y3jx91xtzrulVfeQQkEJbHK/xHNyFn4V4EmuncbYWr/9xs4GOzvPemYBWDgKKHJokFuvEEaMVBM0zm9Qu72ajTzqCFMgrqWzAeMOsNVWFS+fZ9MImGILjzJ6HmbQ9V82qpMdyNf+uN15wFwflL13wXCovs8nkuQDIQDvmYfCbrc8GScBb51FrML2CerwaLC5cCzs3laSr1fBXLz1T8I0A/n4P7djsRBb0UtrmIp18aNTx1N+usCUGPuBHQ1taKzQH+aDwf/2LveH1uDHAxzIXvT3/3W9IwFOH4+JcC+t49OyHI9zkCuZeX4phOQcDj4zFME+vqEo6maylTSH7XKaAUc1tW+t3nNRbeQ7zsT5B1sf/cHKHmnY9bd+qc71AjLC4oZPO7y762QDikFUZrKxZEz+6XFALpMjCHzbR5jeCMEwWWgjrZVMp2pf43Qov5+tFDtmsHXEGW+I6vdL4+95aABEJveYajNpjTJTa+geTc/6XZjX8BE9J/CeFrDG0LyWIJ63pHU/gATQpoM5WyBTVvcxMwGw0JhqUmC81FG5oCbCDXWUxpycfLa66lmhjMe3XwKVr/gSWO/seWWH8YbcMAqvhKgFo45ifkD3MQmsKlOjP/3Xy+U+3DhvRSl9V7JRLg3KAPKJPM09TP68KFJ4WCOT6wQC1VC9UJE0PMGq+bo/qWIMCfie0w62QaEmr1/Crzc4Hzwb+dYyedyvp1iJLZF+p1QSWMKeSlkCSeeeIZZbVYioLXQvmruCbyS/ArXnvhX1qm0FScgWSibCa+sE9Rf65VVtRHcJn2Jzo2wIQUPlfH/z40hlxUh8g3g7kJN+IR4AyksEUNXGgLfmmd6KIBMjFka3BSTIRoalgznE33/7rVvY+UEhuOSBgMcMJSKPzKm0ft6++/be3w61MRgcUEaOJFbTI1eCrxJECN05HD++a1txFFQMFo146t9iYC2sRpLlPo42PeOmP+b/G9oIaSGt99u3fY1776Zs0ElAqKnZ/XCXLp6Wc/VPerCDQgZ+HebyNx93+NUP1/ETkLQ2J2h5mXYEApuIcFVZxk7xAKw1oYS6EpSHNRWIw4OSLDIiRzw6IHgWPe+V2re+Nvmq1i/guVoAkw8id9Cr/9ra85fjzFHeWg26HrhZfA7p3b7PDBPY4JWnhbqZb5RYD3hN07ttnuXdsia+rX1dVhb8Eigj6ry0VW9YthXOulMMjgVO+9e9zxb4wrhzD2WwJhGEfF6zbh5p1Yf8Dq3vltBOb4LSd0P0QBr69Sfn1Y/weZtJ5Wh00wGw1D15eCFai5KITAUCWf50bFtp/HxsXvWmL717FxAb8hlaoR4IJvJ/w6vvuT33DSAvidHqJqHdWFKyLA+cBAEFs2IZAZ5opK/AjQmoCaYuYljFqhX+rbbxxxNrwYuKqnO8Cd6ajB8rC9TFty+OBe+/Br7yCITPTmjYcoQlmVBMJQDosfjcKP9qrVljj07yCZ/e8g+fi7kAhCoBpCfkAnoElA1kf0I6QmLnQFw9PcjuiiQXwjcS1HOwtz0eoXzsudlnjt72DD4j+1RM8uNA7vqVSdABf6TBz+4998z95DrkL6aWnxX/VhCU0DVkPDQpOvKAoEoYEY8YasQyTQd7/yOoL/BGna4g4a0zEcO3rAEUyoraL/GlM1qPhLwLE8OXrQcUdgFFn9zPvLu5Lag1h+VtIuneMXAdhNJnZ8zRLv/QOzXb8ETUwIdmmwOecIhQHIATQbpSYubIVp9QIxFyXjbjzW4VHtbz/yZ9rGH8Nc/G8tcRhzsSUUEmrYpkbV28MddPrZfO87HyJP2LZY+dtUHX7IG8BE9d/6xlcVMj7k4+RX85jmY/+enY7f8cLUMH5dz229jjCIICbvvHkM97H5DXFucjEnapz8CN1yLPd8ppT5xte+Yu/DTJS/JyrhJBACFVE4wdR2q2BC2rUVmsK/a4X1byFn4e+ZTdxGlwMK+bkYLoUUbtAxENYQHj7Ka060UWjikjO4qI/XQS/KKhRS6xsDaBA1ssgFadX+5jcjqtCOX7S61/4aouFqd7asyVKFg7mLvmXTBlvzE6vt3oNeu3j5upPwnSHK41K44OXCRjvbz0eci+ntWzfZt3/sA/vzT085cyLISIXPW6Jn1SLAewMjRXIufHH6gpOuoFptWe66zGt6/NghbG695uQ4XXgsTUaZ4mR8PLPwbT13SYDpLXZs22LvvH3MNq5f66QSclmlTveRQLWXhT52TVWvSAAqqcSe70IY22d2+fes0PsDyITJFU/z5QD6EyLITGEOtU/5coUvKy2ajea8z7H65TXKfcI2UUvoa0Emh8ROXKGaG3RO4BikNjiCdBKb3zerl68gRiQyhTmsDu3fbdsQdp4Jxa9ev20Dg8NO7qrIdKKMhlKL0NXZif5usF0IpMLE6QqR/iJACgJbMR/+AvxNT5w6b3fvP/YlgfWLV9WrMBFw8slBKGzBpskJCIXjSBQflsL5SdN3Rk/eB20mhZTFhcJgD3zaqtpubozXSKEpLs1C34AAvn/vLmkFIzKuEggjMlC+NRM3y0T3XrN3/h5MCQ9Z4eYfmCWZXyoAbdXiTlFg2YEr38UHFAx9Ko7ZaCvyG02F4w4ciLkozEMTGwC0msnnG1otsfPnYB76a2jHdjQoHPx9mmY1Wy0XWB1ISXHk0D4nbPu9+4/sxq17NohkyEwUHuXCvtXX1zn92wyNKAPrbN64HtHwVjnvR7lvfrd9Tc9q+4lvvg9ed+wCNMjjE1O+JbT2uy+qv3wC3Cg5uH+PdXa22xenLlhv34CTU7L8mrw7g3kGmd7gbQiDnJ/8fi9VaEq6ARqs+w97qzJnyW7/3p2WQWL54dFxbKhkIpkXkYIgfc0PIb8gH/QzfhXzpcZB71WXgATC6vIPz9VbuhDY41ehLUS+wsv/xArDFyCZVcEcDL7pjqbwEdD4pMGj2WgjBMLkNH4cqiD3Lh70huaCNeLhW+FvIHM+rvftCitXvArRCA/+DUvs/0swV41OAIKVOxbfI/hDz3DtR5GiYh92gfsHhuz2nQdI8tzvJBRnYuSoFJqTrYY56CYIf9u3bYJGoQdCIYXAl7UJUelTNdrpmOXB33Tbts126fINu333gc3M+ri7V41O6pqvJFBXB23xZmiLv/2hYz1w+eotm5gMfmOAAt6WzRuQPme/7di+ZcV8ifSFpB9hE3JrptLBb2pxE4qpfvbu2m4DQyOOlr3v6YBNYFMlk/VpIfTKUSz/A94nqRE8sG83tLA7nOcUDlWiRUACYbTGy9/WIshHYvN70BTChPTS/2qF+/8vhLJpf6+5VO1Ff8IBfOiTnNSMnNszI7CQrYLMu7jLviejR9wgRztYjfszItkmNn7VEsd+E5Ftj6Ih1WjEYuJ67SUBCoatEKiY5HkHBIHpmVlHOKSv4dP+QZuanrFMJjyLGi5aafrK5No0JduONq9f2+P4B9JPsFo72mwXF6T1FdiO8zwuasNQyG8duH7rG+/aESzIr9+8aw9hXjwGM8JcLgQ33BUgcXFOzZJfvz0rXL5qHycw/7zqdBu+W0UTTY7/rTv3HY2x3+PPgCU0Xz58cB98nte/5Cu4HFxqENuxCZQZX/leRWEHtlXLVVf2Z/zeMFrrbjx2QoidS6ZsZGQMmtZ+3E+HbQSaw7lkMjT3UgqB5EULir3QwjLAFMe9WvfPsoHrhJcIJOAA7tOS+6Vr6Y0oEcilrfDg31oB2kKbfoSWBzxNcE8u8LLD/kArQHkx+rjOUgwuU8XCtd+a7XlHY+lLMxhEBhbBVg2lXBNMdPb/VTx+GddXknlfxjfElfKnhdqhYSxq6GfY93TQ0RbMzMxhUZOxnM8aRC5M6C/U2NAI4a8Fi5c2W7e2G8JKD/72OAIhBdmwLGBmwYpCU6GCey0FQgq3Yd2V5yYBNR73sUlADQg3CdLQxOTz3vyucFH68z/77RU1QaV8XcYnJp1NjVKOraVj+Eu4uqvT8xQSxfvAo8d9dgfm5QMQbmbn5jzxO+Z853e4G7kQt2/dbEx4zu8B892VW3g/eop7VCkabQrPDJJC88ggCgVp3jdHxydsFIJhP+6n1LxOT886Gk0G9/JT2OZeU319g7NR0oU+M93IDlhSbFy/zhEKw3rfCWJsaukaEghraTS97gtMRgvD18yu/FMrPP0U6rSATSlgaeT4EzL6qA9lejhhk4PV1VjRdJUCYQVKgZWJIF5LYicOY2aRQOVeXKxrL7SCfxsRTb+BXxI4h6rEmgAXhblc3olAOD0z4+x2T05N2+jYhLPQoZkW/Q/T8KHJPVPbLycsUJvGwl16Bn5hyHhq9xjcgpo/mi+1QltAHxYu2vicAS+4qx0WATCOE4KL7rm5pLOYHYLPKU3iOAcoMBbHP/ss2hfnzMLtao4bF6Yc8waMOcezGZpemvZSGDhyeJ9MfEM+qbIwf5ycmnGi0Y6OzQs2MxBqZqH5SqcylnfGnOM+/1g45hTCaApKAZCm6mt6sLkDM08KZh34jjdDqxuH7za3UAr4HqWxqcbv0uzs/PeJAuP07KxNTk47Ajfvn/xOcfPNERhLMocqbqLNc25qanJ8Qqk97YJvKJPJUyvYjPclBIb8y1ZB8yQQVgAtdqckR5Ga4v+wwp3/0yw1Gmz3J54JhStbcZTdrjS0g6O9dVU1G+1Yl7eOdd7skr8AgAunzXhnywvv+v+iDsLfpm9AGPwNJJk/iEbML9z9v7CuEDUCRSGRvoZctCQXCIRczExDi7SUUEhhkAvCOpj2FQVCasgoEFLg40KFZn9xWBxGbcwXt5cCQA7ajQyCaKSS2BTAhoAjEOKWSC1SOj1/4+dtZFVrqzU2wQQd/7gJwPGmz2K9M94S9BezDftrfv8pqFCwmYVgk8b3n/eA5DOzyBTe59hS+KAJLzd6OO40C6XJN7X/EkpeHGXeS+cfBQjXeec7Rb4UxEu1yKDQ3QTOrS0tVg/Gxe/Xi1fSq1okIIGwFkfVjz7ls0hL8ZEVLvxPZpN3cAUfhJil2s3LDOJqvfjrsftJtc1G6U5H7WDTKh9YIs1fYheYlW85s9QolPZe81qYh/57ePyCWWt3aefoKBEQAREQAREQAREQgaoSkEBYVfwRuzh29GzyvhUu/i9WePIDCGgB5SzEZQsPwcqHpPVTQwmbGqqO2ahv5qJILZHYCV6teARRKNmufs0SR38TJqLvm9UpVlUQ2HUNERABERABERABEfCCgARCLyjGrY40wkjf/ldWuPG/IV9gP3rvg4ZrMdMMrvIAb44t/sDd6/QszEYRXKYk83p3l3rp7Pa1Betc73FofvoNMohMML7u0EAiqtiWb5sdQ6L51Ttf6qPeEAEREAEREAEREAERCDcBCYThHp/wto4mpP1nYUL6P0NICyhnIYLLFGit6qFikoLg6KM6S88F6+vGIDLdW/PW3OahMI06EzvAh2k7fO8OLrBqM4TPX7HEgb9s1szINSoiIAIiIAIiIAIiIAJRIyCBMGojFqr2QpiZeGyFK/8cKSL+CCakPoUDXdhnaAgL9/CGh/6EU4MwGx0O1my0CdFFe+A/6Fl0UQqA6yAHbsNfv/0GE7hAz3FLHPkPEbjmq7gecnapiIAIiIAIiIAIiIAIRJKABMJIDlvIGp2ahpD2R4hE+vsIDfcYjfNQ67W4q7SwhJVqoQ9/PbK2pNnoCLSEDDITVOmAuWiHl+aiqyEM7kHr/RYGG7sgdP4UhMF/36xjKy7quyoyqCHRdURABERABERABEQglgQkEMZy2H3oNGwvC0PXEHDmHyP4y+eQ2OD051eB4Ob4E3qUtD5os1FqBXtgLtrklbloG+SyXYDta/J5aFA7kVvwwH8AwfO7Zg0tfo2u6hUBERABERABERABEQiQgATCAGHH4VKFSajurv8LRAX9V2ZpRoDxSVuYRs33UT3yFHpRJvrrbGY0GG2Xp+aisNZ0NIOdXlB4RR3ILZjY8HWz134df4/ign6rIV/RDr0tAiIgAiIgAiIgAiLgOQEJhJ4jVYWWnrXC4x9a4eo/M5u6DcnNQ4e/hXinUTWDzEA4dFtSSFI/FlCS+vY1z6KLupU/obRzfAbXo/du61oSICptWo3AMb8MzeAvmrXBSdGfCy15db0pAiIgAiIgAiIgAiLgPwEJhP4zjucV8nkrjN6CCek/MRv4GP5+KX84wGzUMR916f+HoKmOH2Em6Ytk9WXfmbKvZ5sH0UXZTEQTdaKK+qGwoxaw6zAEwV+1xG6klahv/rIPeiICIiACIiACIiACIlA7BCQQ1s5YhrMns6NWuPmH0OT9gVmKTn8em5BC+Vh4+v+3d+c/dl5nHcDPO+N9HduxE+92TPbGqEKlaoOgqlSVQssvIKK2CCgFWij0n4FSEoKCEC2qqhYh+KGAEGWr1CiFhCx16yy1s9iNd4+X8diel+fc8VS2M3fmzp1j+56Zz6tY45m599zzfo7zw1fnvM8Tw+Z2iPMJhTGtMz++9cdGl65o06bdBaqLRpeHzlHRW9EDfnhVNJiP5wQfjucFN+6LD7q1IXkw/+GaFQECBAgQIEBgcQgIhItjne/sXV4ZT+2b/53al59K6fTzEdwKF5zJofC1uMX8yOI8rrFzk8dGb2W10dUb27T+nvkk17jBqOfS3Btfizefj+C38u7UPPz7qdn78ficSJ0uAgQIECBAgACBBS0gEC7o5R2gm8sp62z0LHzhLyIcfiulK6NlJzcWoTA/TziPVohX49hoblJ/q46Ndo6L5mb0a+axSxonOX/y3GBJwaFlk70F867gjg+mNKS3YEleYxEgQIAAAQIEBlVAIBzUlVmo87o0GsEtehYeiIIzF/NZz3mEo5uNTsZoh+KH/W5A3uJjo0uXRzP6OC463O8xz9jAa7bH/d0Tf+JZxGLXkrXxLOInUnroM6kZ2RnDOiJazNZABAgQIECAAIEBFxAIB3yBFuT0YiuuPfo/UYX0iZSOPxNHSAuUCc1QOVseuxYK+8yZl+LY6MmoNnorjo2uGmnTyNbYKe03b22Mt+6Je+w3UMZbb7xiIqv3pGb/F2LX8cNRUTQaGroIECBAgAABAgQWlYBAuKiWe8Bu9vzxNPHy36T0+teidURs75W48vOEb8RAEQz72Xy8VdVGc12Wke0TaeW6PpPqygiD98U9leoHPxwDbXksNe/5fGq2vCcGL7nlWGIhjUGAAAECBAgQIHA7BATC26HsM7oLXB6LthH/GgVn4gjpuR9GiItEN98rOly0r8Yg0aewn+vMkag2eqrfbbzpP3FJPKK3affVNNzPo3nx3k4RmSLN5+O+VmyJ8R6PlhK/fq234PRz9lMCBAgQIECAAIGFLyAQLvw1Hvw7nLia2uMHJ4+QHv12SlfnURlm6m7PRyjMlUcvTv2g969jo1Ft9K2yx0bzcdH1cVx0zh0cYuOu89zg1t7n3/WVU70F938xNdt+No6eltpu7PqJfkGAAAECBAgQIDDgAgLhgC/QoprexVNp4sA3Uno1jpGO5YIz87yi7WF7OMaI6qFzuXK10ROHhtKVS2V2CTvHRbfFcdH1fRwX3RyBcHfMfr4nOofj+cDtv5iaR6OlxEgMOOdkOhdBryVAgAABAgQIEKhFQCCsZaUWyzxzwZkj30vti1+KVPbs/I6QRv7qBMJ3Am8uWSxeezqOjV44XSYQ9n1cNDef3xNzXx5/+r7iHlbvSs39UUF0X+4tuLbvkbyRAAECBAgQIEBg4QkIhAtvTRfEHbWjRyMU/lVKh78ZbSTO9H9PsdvXaUVxYm5DjJ29dmx0LkGyy0f0dVw0N5//qRhwVZdBe/lx7i24+YNRRfQPU7M5CscMRRNDFwECBAgQIECAAIHrBATC6zD8dcAELl+MMJcLzjyZ0ujBSHbRsqGfK54j7BSZmcOjiVejl+GJaFI/32OjfR0Xzc3n98aNbog//W5SLhuJwjGfTM2Dn5osHOOIaD//cryHAAECBAgQILDgBQTCBb/Eld9ghMD2VITBF55I7Vv/0n/Pwthk7ITCHp8nbGNnMFcbne+x0VxVdNOuq2lJr8c+cwC8O3Lgjvja13OD8aZ196fmoc9GqPxoFI7p9YMr/3di+gQIECBAgAABAn0JCIR9sXnTbRcYH03tga+l9odPR8GZqBYz1ytvLsazhO1b8bXHzhYX49jo6bfnV2009x3M/Qd73qDLzefz7mA/pzuHVkSQ/EhKj3wuNRv3xUB9Jcq5yno9AQIECBAgQIBAxQICYcWLt+imnttTHPluap//k5ROPR/prsdkNwUVu37tj+KbnCd7eDZwvsdGcwjMrSbyM4Q9XWuuhcFoQj+3Kz5oxeZoMv+FOCb6yyktUzhmbn5eTYAAAQIECBBYvAJLFu+tu/PqBKIoSrPtA6lZuytNxBHSdPgf59azMHJTPorZRuP6dHb2ux+K/zuWR1GXK/n1fVz5/ctW9RgG42hpk3sNzjUMRm/BZtN7U3o0wuDW9ysc08c6eQsBAgQIECBAYDEL2CFczKtf872Pn0vtK3+X2u8/Hc3n34476TF45XuOMNjZKRybHWA+x0Z7Pi6ai8jsjrlsij8RWnu+lqyN9308nhf8zZRG9s7xzT1/ihcSIECAAAECBAgsYAGBcAEv7oK/tYnoWXj02dT+XxwhPfFcpLweK8ZkmJPx8tfj6yynTq+M5yb1wykfH53L1Tkuek8cF90wS1DNATA3n98ZX3t+bjDetGprah7+g2tHRKPpvIsAAQIECBAgQIBAHwICYR9o3jJIAhG4zh+LI6R/mdKhb0TPwtHeJhdFZtoj8dJZNhdztdHTbw2lvFM4l6vn6qL5ucH7YuQ4MtrT1SxNzd0fSOmnv5iaux6JNysc05ObFxEgQIAAAQIECEwrIBBOy+KH1QlcGZvsWfjCl1I691pMf5aduXyDsevXOTp6aua7vXgmmtRHtdFehpwaacXaNm3I1UVnymvxfGJzb7yj1+bzyzZFs/rHU/PAJ6O34Japj/KVAAECBAgQIECAQN8Cisr0TeeNAyWwJFou3Pux6MG3K6qQRig89p04DjpLNZhcyGVX5Lx8HPRc97tZurJNw/F/Sq/HRvNx0eWr25nDYIzX3BOf2UsYjMIxaf2DqcntJHZ+SG/B7kvlNwQIECBAgAABAnMUsEM4RzAvr0AgjpC2B76S2te+ntKlHnoWno5Q+HrcV5fnBNs4XnrqzaE0dq63Y6P5uOjGnRNp6Youu5Sxa9h5ZjBv8s02ZO4tuP3Dqdn/x1E4Zk+8fqYtxwrWxhQJECBAgAABAgQGSkAgHKjlMJliAlfHU/vmf0TBmT+NqqI/iMQXqW6m62i8JD9P2KUuzYXTk03qZxpi6nf5uOjItokUXTLefeUAGNVE885kmm1/fsWW1Nz/6XjG8PFoR7Hh3WP5CQECBAgQIECAAIF5CgiE8wT09gEWyBVhzh5KE899OaUj/xxh70L3ycZL2zfj1xEMp3tW8HK0qDh5OKqNdgmMUwPn46Lr7p5Iqzd22R3Mzw3eH69eNvWOab42kRTv+ploNP/5OFb6vqg+2mvFmWnG8iMCBAgQIECAAAECMwgIhDPg+NUCEbh0NrUHo2fhwb+OiqRvxU11CWvRYqJ9LX49TdP6Xo+NznhcdEWEwVxEJiqLdr1yb8E9v5KaRz93rXDMbGdKu47kFwQIECBAgAABAgRmFRAIZyXyggUhkHsWHnkmtS8+mdLxZyP5dXlg8GL86tW442k2E8+fbNKZH8czfF3yZHbqWl00N5/PvQa7FgeN4Ld6d/QW/Gxq9v5S7CDOlBrzJ7kIECBAgAABAgQIzF9AIJy/oRFqEchHSM8fjecKn0rtG3/fvWdhblr/o7ipm46HXh5r4tjo0IzHRvNx0TWbbkqMkfWa7TFerio6XU2YoWWp2fJYSrEr2Gx+NF4z28OFMY6LAAECBAgQIECAQAEBgbAAoiEqE7h8MaqK/lNUIn0qjoe+EpO/KcDFt9M9T9g5NhpN6sdGpz/GmYvIbNoV1UWjTcUNV9SDafbET971KGCMs2wkNfuit+Ajvx3biwrHhJKLAAECBAgQIEDgNgoIhLcR20cNkkCb2mMvpvRi7BYe+beUJm7qWXg1QuEbMd9j8ee6fJePjZ6NY6N5s/Hma/mqNm2MQHhDZ4iVEQbvi1fG84M3XJ3egg/Fs4JROGbHL0ThmJmqzNzwTt8QIECAAAECBAgQKCYgEBajNFCVAhdPpfb7X43nBr8aPQtPxC1cl/SisminyMx1Tes7x0bfiGOjNz+CGJt96zbHcdG7rnt/7Ag2e2PIkZtkhqPU6LaPpKH9UThmJF5wQ4K86bW+JUCAAAECBAgQIHALBQTCW4hr6EoErl6K3cD/TO3LT0QH+pciBcb24NR1Pr7NRWYiHOar27HRfFw0N6NfFruEnSueFez0Gtwc30VYnLziLyu3xo7hb8SfX42/35wUp17nKwECBAgQIECAAIHbIyAQ3h5nnzLwAhHkTh6MUPh0PD/4rRt7Fh6PIHgobiDnxHjZuRNxbPTYjdVG83HRDREIf9KMPoJgszteP1VEJvcWHHk0Nfv/KDXb3q+34MD/ezBBAgQIECBAgMDiEBAIF8c6u8teBcZHU/vKP0wWnLnwdrwrEmD+73D89Z3Jb8cvNulUPjY6VYU0Nv46x0VzddG8G7j+Whicem4wegumnZ+IwjGfSc3IznhBfpGLAAECBAgQIECAwJ0XEAjv/BqYwaAJxJHR9uhz0bPwy1FU5rtRcCY61kf46+wSxmOGE7FTeCqqjV46Nxns8q7ghu0TafmaCITLI+7lIjLxmGDn2cDV96bmgd+KhvTRW3C53oKDttTmQ4AAAQIECBBY7AIC4WL/F+D+uwq0o0dS+sFXorDMN1MajySYm9bnLhXx9dzxODb6zuR50Pzc4MYdcVw0h8G98fvcPWI4vtn8WDSa/73UbN2vt2BXZb8gQIAAAQIECBC4kwIC4Z3U99mDL3D5QuwMfju1L/1ZSqNRXeb0RKfy6PiZJp2IY6O5/cSaTRNp3Zb4SzSeb3bELa3YmNKeX0tDD306pbXxQxcBAgQIECBAgACBARWIShcuAgS6CixdFY3jPxbBbnccIY1Q2PxXFIUZS0uutGnp8jZdGW/S8tXx7siAzY7YMRx5MHYFo7fg7p9P0aG+67B+QYAAAQIECBAgQGAQBOwQDsIqmEMdAheiZ+GBv402FF+Pr0fS2ZeaNH4hsuADE2n4oQh/+z4ahWN+NzWb9kU6nCovWsetmSUBAgQIECBAgMDiFBAIF+e6u+t+Ba6Mp/bIM6n93yfT2L9/L10+Hs3of25bGnrfp6J4jN6C/bJ6HwECBAgQIECAwJ0REAjvjLtPrVkgPzg4+na6+p0/T+3xd9Lwh34nNfe8N6Uly2q+K3MnQIAAAQIECBBYhAIC4SJcdLdcSOBSnBeduJzSymg86CJAgAABAgQIECBQoYBAWOGimTIBAgQIECBAgAABAgRKCKh8UULRGAQIECBAgAABAgQIEKhQQCCscNFMmQABAgQIECBAgAABAiUEBMISisYgQIAAAQIECBAgQIBAhQICYYWLZsoECBAgQIAAAQIECBAoISAQllA0BgECBAgQIECAAAECBCoUEAgrXDRTJkCAAAECBAgQIECAQAkBgbCEojEIECBAgAABAgQIECBQoYBAWOGimTIBAgQIECBAgAABAgRKCAiEJRSNQYAAAQIECBAgQIAAgQoFBMIKF82UCRAgQIAAAQIECBAgUEJAICyhaAwCBAgQIECAAAECBAhUKCAQVrhopkyAAAECBAgQIECAAIESAgJhCUVjECBAgAABAgQIECBAoEIBgbDCRTNlAgQIECBAgAABAgQIlBAQCEsoGoMAAQIECBAgQIAAAQIVCgiEFS6aKRMgQIAAAQIECBAgQKCEgEBYQtEYBAgQIECAAAECBAgQqFBAIKxw0UyZAAECBAgQIECAAAECJQQEwhKKxiBAgAABAgQIECBAgECFAgJhhYtmygQIECBAgAABAgQIECghIBCWUDQGAQIECBAgQIAAAQIEKhQQCCtcNFMmQIAAAQIECBAgQIBACQGBsISiMQgQIECAAAECBAgQIFChgEBY4aKZMgECBAgQIECAAAECBEoICIQlFI1BgAABAgQIECBAgACBCgUEwgoXzZQJECBAgAABAgQIECBQQkAgLKFoDAIECBAgQIAAAQIECFQoIBBWuGimTIAAAQIECBAgQIAAgRICAmEJRWMQIECAAAECBAgQIECgQgGBsMJFM2UCBAgQIECAAAECBAiUEBAISygagwABAgQIECBAgAABAhUKCIQVLnoaX04AAARZSURBVJopEyBAgAABAgQIECBAoISAQFhC0RgECBAgQIAAAQIECBCoUEAgrHDRTJkAAQIECBAgQIAAAQIlBATCEorGIECAAAECBAgQIECAQIUCAmGFi2bKBAgQIECAAAECBAgQKCEgEJZQNAYBAgQIECBAgAABAgQqFBAIK1w0UyZAgAABAgQIECBAgEAJAYGwhKIxCBAgQIAAAQIECBAgUKGAQFjhopkyAQIECBAgQIAAAQIESggIhCUUjUGAAAECBAgQIECAAIEKBQTCChfNlAkQIECAAAECBAgQIFBCQCAsoWgMAgQIECBAgAABAgQIVCggEFa4aKZMgAABAgQIECBAgACBEgICYQlFYxAgQIAAAQIECBAgQKBCAYGwwkUzZQIECBAgQIAAAQIECJQQEAhLKBqDAAECBAgQIECAAAECFQoIhBUumikTIECAAAECBAgQIECghIBAWELRGAQIECBAgAABAgQIEKhQQCCscNFMmQABAgQIECBAgAABAiUEBMISisYgQIAAAQIECBAgQIBAhQICYYWLZsoECBAgQIAAAQIECBAoISAQllA0BgECBAgQIECAAAECBCoUEAgrXDRTJkCAAAECBAgQIECAQAkBgbCEojEIECBAgAABAgQIECBQoYBAWOGimTIBAgQIECBAgAABAgRKCAiEJRSNQYAAAQIECBAgQIAAgQoFBMIKF82UCRAgQIAAAQIECBAgUEJAICyhaAwCBAgQIECAAAECBAhUKCAQVrhopkyAAAECBAgQIECAAIESAgJhCUVjECBAgAABAgQIECBAoEIBgbDCRTNlAgQIECBAgAABAgQIlBAQCEsoGoMAAQIECBAgQIAAAQIVCgiEFS6aKRMgQIAAAQIECBAgQKCEgEBYQtEYBAgQIECAAAECBAgQqFBAIKxw0UyZAAECBAgQIECAAAECJQQEwhKKxiBAgAABAgQIECBAgECFAgJhhYtmygQIECBAgAABAgQIECghIBCWUDQGAQIECBAgQIAAAQIEKhQQCCtcNFMmQIAAAQIECBAgQIBACQGBsISiMQgQIECAAAECBAgQIFChgEBY4aKZMgECBAgQIECAAAECBEoICIQlFI1BgAABAgQIECBAgACBCgUEwgoXzZQJECBAgAABAgQIECBQQkAgLKFoDAIECBAgQIAAAQIECFQoIBBWuGimTIAAAQIECBAgQIAAgRICAmEJRWMQIECAAAECBAgQIECgQgGBsMJFM2UCBAgQIECAAAECBAiUEBAISygagwABAgQIECBAgAABAhUKCIQVLpopEyBAgAABAgQIECBAoISAQFhC0RgECBAgQIAAAQIECBCoUEAgrHDRTJkAAQIECBAgQIAAAQIlBATCEorGIECAAAECBAgQIECAQIUCAmGFi2bKBAgQIECAAAECBAgQKCEgEJZQNAYBAgQIECBAgAABAgQqFBAIK1w0UyZAgAABAgQIECBAgEAJgf8HoDu0Ju1MapQAAAAASUVORK5CYII=;" parent="2XOn3tt3TwSdEkKgVilo-6" vertex="1">
          <mxGeometry x="638.6516853932584" y="313.18529946553537" width="79.59116204749573" height="35.10937241721307" as="geometry" />
        </mxCell>
        <mxCell id="zEnndhM-SragiBq4aa2N-1" value="SAP Cloud Identity Service" style="shape=image;verticalLabelPosition=bottom;verticalAlign=top;aspect=fixed;imageAspect=0;image=data:image/svg+xml,PHN2ZyB4bWxucz0iaHR0cDovL3d3dy53My5vcmcvMjAwMC9zdmciIGZpbGw9Im5vbmUiIHZpZXdCb3g9IjAgMCAxNiAxNiIgaGVpZ2h0PSIxNiIgd2lkdGg9IjE2Ij4mI3hhOzxjaXJjbGUgc3Ryb2tlLXdpZHRoPSIwLjI4NTcwOCIgc3Ryb2tlPSIjRDVEQUREIiBmaWxsPSJ1cmwoI3BhaW50MF9saW5lYXJfMzg5MF8yMTUyMSkiIHI9IjcuODU2OTYiIGN5PSI3Ljk5Nzg2IiBjeD0iNy45OTY0Ii8+JiN4YTs8ZyBjbGlwLXBhdGg9InVybCgjY2xpcDBfMzg5MF8yMTUyMSkiPiYjeGE7PHBhdGggZmlsbD0idXJsKCNwYWludDFfbGluZWFyXzM4OTBfMjE1MjEpIiBkPSJNNy40MDk4OCAzLjM5Nzk1QzYuMDY2NjIgMy4zOTc5NSA0Ljk3NDI0IDQuNDgzMDIgNC45NzQyNCA1LjgyNTc4QzQuOTc0MjQgNi41MTYxNiA1LjI2MzAyIDcuMTM4NDIgNS43MjYyIDcuNTgwMTFDNC41MDE2OCA4LjA2MjIxIDMuNTk2NjggOS4wNjA3NiAzLjU5NjY4IDEwLjMyNzZWMTEuMTgyMUMzLjU5NjY4IDExLjQ1ODMgMy44MjA1NCAxMS42ODIxIDQuMDk2NjggMTEuNjgyMUg2LjQ3NTI5QzYuNzUxNDQgMTEuNjgyMSA2Ljk3NTI5IDExLjQ1ODMgNi45NzUyOSAxMS4xODIxQzYuOTc1MjkgMTAuOTA2IDYuNzUxNDQgMTAuNjgyMSA2LjQ3NTI5IDEwLjY4MjFINC41OTY2OFYxMC4zMjc2QzQuNTk2NjggOS4yOTk4NyA1LjcyOTI5IDguMjY0MzMgNy40MDk5NiA4LjI2NDMzQzcuNDQ5NzIgOC4yNjQzMyA3LjQ4ODQgOC4yNTk2OCA3LjUyNTQ4IDguMjUwOTFDOC44MTUyNSA4LjE5MDc5IDkuODQ1NTIgNy4xMjk4IDkuODQ1NTIgNS44MjU3OEM5Ljg0NTUyIDQuNDgzMDIgOC43NTMxNCAzLjM5Nzk1IDcuNDA5ODggMy4zOTc5NVpNNS45NzQyNCA1LjgyNTc4QzUuOTc0MjQgNS4wMzkxMSA2LjYxNTA5IDQuMzk3OTUgNy40MDk4OCA0LjM5Nzk1QzguMjA0NjcgNC4zOTc5NSA4Ljg0NTUyIDUuMDM5MTEgOC44NDU1MiA1LjgyNTc4QzguODQ1NTIgNi42MTI0NCA4LjIwNDY3IDcuMjUzNiA3LjQwOTg4IDcuMjUzNkM2LjYxNTA5IDcuMjUzNiA1Ljk3NDI0IDYuNjEyNDQgNS45NzQyNCA1LjgyNTc4WiIgY2xpcC1ydWxlPSJldmVub2RkIiBmaWxsLXJ1bGU9ImV2ZW5vZGQiLz4mI3hhOzxwYXRoIGZpbGw9InVybCgjcGFpbnQyX2xpbmVhcl8zODkwXzIxNTIxKSIgZD0iTTEwLjU0OTYgNy41OTQwOUMxMC41ODY5IDcuMzU1MzYgMTAuODEwNyA3LjE5MjEgMTEuMDQ5NCA3LjIyOTQ0QzExLjkwNiA3LjM2MzM5IDEyLjc0ODMgNy43NzA1NyAxMy40NDEyIDguNDY3MjNDMTMuNjExNSA4LjYzODU1IDEzLjYxMDggOC45MTU1NiAxMy40Mzk1IDkuMDg1OTVDMTMuMjY4MSA5LjI1NjMzIDEyLjk5MTEgOS4yNTU1NyAxMi44MjA3IDkuMDg0MjVDMTIuMjYwMSA4LjUyMDU1IDExLjU4ODEgOC4xOTkzMiAxMC45MTQyIDguMDkzOTNDMTAuNjc1NSA4LjA1NjYgMTAuNTEyMyA3LjgzMjgxIDEwLjU0OTYgNy41OTQwOVoiIGNsaXAtcnVsZT0iZXZlbm9kZCIgZmlsbC1ydWxlPSJldmVub2RkIi8+JiN4YTs8cGF0aCBmaWxsPSJ1cmwoI3BhaW50M19saW5lYXJfMzg5MF8yMTUyMSkiIGQ9Ik0xMC45MzMyIDExLjMzMDFDMTAuOTMzMiAxMS4wODg1IDEwLjczNzQgMTAuODkyNiAxMC40OTU3IDEwLjg5MjZDMTAuMjU0MSAxMC44OTI2IDEwLjA1ODIgMTEuMDg4NSAxMC4wNTgyIDExLjMzMDFDMTAuMDU4MiAxMS42NzM3IDEwLjE1MDMgMTIuMDM5OCAxMC4zMzM3IDEyLjMzNjFDMTAuMzUyNiAxMi4zNjY2IDEwLjM3MTcgMTIuMzk3MSAxMC4zOTQ2IDEyLjQyNDVDMTAuNTM2OSAxMi41OTQ3IDEwLjc5NDEgMTIuNjMzMyAxMC45Nzk4IDEyLjUwNUMxMS4xNzc1IDEyLjM2ODQgMTEuMjI3OSAxMi4wOTgxIDExLjA5MzMgMTEuODk5NkMxMC45ODgxIDExLjczMzUgMTAuOTMzMiAxMS41MjU0IDEwLjkzMzIgMTEuMzMwMVoiLz4mI3hhOzxwYXRoIGZpbGw9InVybCgjcGFpbnQ0X2xpbmVhcl8zODkwXzIxNTIxKSIgZD0iTTEzLjI4NTEgMTEuMDU5OUMxMy4zMzExIDkuOTMzNjkgMTIuNDYzOSA4Ljk4OTU4IDExLjQ1NDQgOC42MTA0OEMxMC40MDg4IDguMjE3OCA5LjEwMDgyIDguMzc5NjYgOC4xOTU2MyA5LjU1NzM0QzguMDQ4MzggOS43NDg5MiA4LjA4NDMxIDEwLjAyMzYgOC4yNzU4OSAxMC4xNzA4QzguNDY3NDYgMTAuMzE4MSA4Ljc0MjEzIDEwLjI4MjEgOC44ODkzOCAxMC4wOTA2QzkuNTI2NTMgOS4yNjE2MiAxMC40MDczIDkuMTUxOTEgMTEuMTQ2OCA5LjQyOTYyQzExLjkyMjUgOS43MjA5MiAxMi40MzY4IDEwLjM4OTIgMTIuNDEwOCAxMS4wMjQyQzEyLjQwNiAxMS4xNDIyIDEyLjM2NjIgMTEuMjAyMSAxMi4zMzU3IDExLjIzMTlDMTIuMzAxMyAxMS4yNjU2IDEyLjI1NyAxMS4yODI2IDEyLjIxNDYgMTEuMjgzNEMxMi4xNzMyIDExLjI4NDIgMTIuMTQyIDExLjI2OTkgMTIuMTIxMyAxMS4yNDkxQzEyLjEwMzYgMTEuMjMxMyAxMi4wNjI3IDExLjE3NzYgMTIuMDYyNyAxMS4wNDIxQzEyLjA2MjcgMTAuNjY3OCAxMS44MjUzIDEwLjI2NjggMTEuNDgwOCAxMC4wMDgzQzExLjEwOTkgOS43Mjk5IDEwLjU4NTIgOS41ODc3NiA5Ljk2ODQ2IDkuNzU3OTJMOS45NTk0MyA5Ljc2MDQxTDkuOTUwNTIgOS43NjMyOUM5LjM1OTk4IDkuOTUzNzkgOC45ODMzIDEwLjUwNTggOC44OTg2NyAxMS4xNTA3QzguODEzMiAxMS44MDIxIDkuMDEzMzEgMTIuNTY4MyA5LjU2NTM4IDEzLjMxMzNDOS43MDkyNCAxMy41MDc0IDkuOTgzMjQgMTMuNTQ4MiAxMC4xNzc0IDEzLjQwNDNDMTAuMzcxNSAxMy4yNjA1IDEwLjQxMjMgMTIuOTg2NSAxMC4yNjg0IDEyLjc5MjNDOS44MjQ5NyAxMi4xOTQgOS43MTU1OSAxMS42NTA1IDkuNzY2MjMgMTEuMjY0NkM5LjgxNzAyIDEwLjg3NzYgMTAuMDE3MiAxMC42NjUyIDEwLjIxMTEgMTAuNTk4N0MxMC41NTc1IDEwLjUwNiAxMC43OTk4IDEwLjU5MTIgMTAuOTU1NSAxMC43MDgxQzExLjAzOSAxMC43NzA3IDExLjEwMDkgMTAuODQ1MiAxMS4xNDA1IDEwLjkxNDZDMTEuMTgyNSAxMC45ODY2IDExLjE4NiAxMS4wMjMyIDExLjE4ODQgMTEuMDg4QzExLjE5NzkgMTEuMzk3NSAxMS4zMDQ3IDExLjY2ODkgMTEuNTAxIDExLjg2NjJDMTEuNzA0IDEyLjA3MDIgMTEuOTcxOCAxMi4xNjMzIDEyLjIzMTUgMTIuMTU4MkMxMi43NjQxIDEyLjE0NzkgMTMuMjU3NyAxMS43MzIgMTMuMjg1MSAxMS4wNTk5WiIvPiYjeGE7PC9nPiYjeGE7PGRlZnM+JiN4YTs8bGluZWFyR3JhZGllbnQgZ3JhZGllbnRVbml0cz0idXNlclNwYWNlT25Vc2UiIHkyPSIxNC43NDU4IiB4Mj0iMTMuNjg0NCIgeTE9IjIuMjY4OTQiIHgxPSIxLjQ0NzUiIGlkPSJwYWludDBfbGluZWFyXzM4OTBfMjE1MjEiPiYjeGE7PHN0b3Agc3RvcC1jb2xvcj0id2hpdGUiLz4mI3hhOzxzdG9wIHN0b3AtY29sb3I9IiNFQUVDRUUiIG9mZnNldD0iMSIvPiYjeGE7PC9saW5lYXJHcmFkaWVudD4mI3hhOzxsaW5lYXJHcmFkaWVudCBncmFkaWVudFVuaXRzPSJ1c2VyU3BhY2VPblVzZSIgeTI9IjguODQ1NzQiIHgyPSIxMC4xMTEzIiB5MT0iNC42MzY4IiB4MT0iNC41MzM0MSIgaWQ9InBhaW50MV9saW5lYXJfMzg5MF8yMTUyMSI+JiN4YTs8c3RvcCBzdG9wLWNvbG9yPSIjMDE5NUZGIi8+JiN4YTs8c3RvcCBzdG9wLWNvbG9yPSIjMTE0N0U5IiBvZmZzZXQ9IjAuOTkxMDI4Ii8+JiN4YTs8L2xpbmVhckdyYWRpZW50PiYjeGE7PGxpbmVhckdyYWRpZW50IGdyYWRpZW50VW5pdHM9InVzZXJTcGFjZU9uVXNlIiB5Mj0iMTEuOTUyNSIgeDI9IjEzLjI1OTgiIHkxPSI4LjE0NjAyIiB4MT0iOC45MTI3MiIgaWQ9InBhaW50Ml9saW5lYXJfMzg5MF8yMTUyMSI+JiN4YTs8c3RvcCBzdG9wLWNvbG9yPSIjMTM0OEZGIi8+JiN4YTs8c3RvcCBzdG9wLWNvbG9yPSIjMDYyMzhEIiBvZmZzZXQ9IjEiLz4mI3hhOzwvbGluZWFyR3JhZGllbnQ+JiN4YTs8bGluZWFyR3JhZGllbnQgZ3JhZGllbnRVbml0cz0idXNlclNwYWNlT25Vc2UiIHkyPSIxMS45NTI1IiB4Mj0iMTMuMjU5OCIgeTE9IjguMTQ2MDIiIHgxPSI4LjkxMjcyIiBpZD0icGFpbnQzX2xpbmVhcl8zODkwXzIxNTIxIj4mI3hhOzxzdG9wIHN0b3AtY29sb3I9IiMxMzQ4RkYiLz4mI3hhOzxzdG9wIHN0b3AtY29sb3I9IiMwNjIzOEQiIG9mZnNldD0iMSIvPiYjeGE7PC9saW5lYXJHcmFkaWVudD4mI3hhOzxsaW5lYXJHcmFkaWVudCBncmFkaWVudFVuaXRzPSJ1c2VyU3BhY2VPblVzZSIgeTI9IjExLjk1MjUiIHgyPSIxMy4yNTk4IiB5MT0iOC4xNDYwMiIgeDE9IjguOTEyNzIiIGlkPSJwYWludDRfbGluZWFyXzM4OTBfMjE1MjEiPiYjeGE7PHN0b3Agc3RvcC1jb2xvcj0iIzEzNDhGRiIvPiYjeGE7PHN0b3Agc3RvcC1jb2xvcj0iIzA2MjM4RCIgb2Zmc2V0PSIxIi8+JiN4YTs8L2xpbmVhckdyYWRpZW50PiYjeGE7PGNsaXBQYXRoIGlkPSJjbGlwMF8zODkwXzIxNTIxIj4mI3hhOzxyZWN0IHRyYW5zZm9ybT0idHJhbnNsYXRlKDMuNTk2NjggMy4zOTc5NSkiIGZpbGw9IndoaXRlIiBoZWlnaHQ9IjEwIiB3aWR0aD0iMTAiLz4mI3hhOzwvY2xpcFBhdGg+JiN4YTs8L2RlZnM+JiN4YTs8L3N2Zz4=;points=[[0,0,0,0,0],[0,0.25,0,0,0],[0,0.5,0,0,0],[0,0.75,0,0,0],[0.25,0,0,0,0],[0.5,0,0,0,0],[0.75,0,0,0,0],[1,0,0,0,0],[1,0.25,0,0,0],[1,0.5,0,0,0],[1,0.75,0,0,0]];fontStyle=0;fontSize=12;fontColor=#1D2D3E" vertex="1" parent="2XOn3tt3TwSdEkKgVilo-6">
          <mxGeometry x="221.68" y="401" width="40" height="40" as="geometry" />
        </mxCell>
        <mxCell id="2XOn3tt3TwSdEkKgVilo-28" style="edgeStyle=none;rounded=0;orthogonalLoop=1;jettySize=auto;html=1;fontColor=#BFBFBF;fontSize=13;strokeColor=#A3A3A3;endSize=5;strokeWidth=2;endArrow=blockThin;endFill=1;entryX=0;entryY=0.5;entryDx=0;entryDy=0;exitX=1;exitY=0.5;exitDx=0;exitDy=0;" parent="1" source="2XOn3tt3TwSdEkKgVilo-31" target="2XOn3tt3TwSdEkKgVilo-3" edge="1">
          <mxGeometry relative="1" as="geometry">
            <mxPoint x="538" y="351" as="sourcePoint" />
            <mxPoint x="547" y="264" as="targetPoint" />
          </mxGeometry>
        </mxCell>
        <mxCell id="2XOn3tt3TwSdEkKgVilo-30" value="Firewall" style="text;strokeColor=none;align=center;fillColor=none;html=1;verticalAlign=middle;whiteSpace=wrap;rounded=0;fontStyle=1" parent="1" vertex="1">
          <mxGeometry x="270" y="70" width="60" height="30" as="geometry" />
        </mxCell>
        <mxCell id="2XOn3tt3TwSdEkKgVilo-31" value="Cloud&#xa; Connector" style="shape=image;verticalLabelPosition=bottom;verticalAlign=top;aspect=fixed;imageAspect=0;image=data:image/svg+xml,PHN2ZyB4bWxucz0iaHR0cDovL3d3dy53My5vcmcvMjAwMC9zdmciIGZpbGw9Im5vbmUiIHZpZXdCb3g9IjAgMCAxNiAxNiIgaGVpZ2h0PSIxNiIgd2lkdGg9IjE2Ij4mI3hhOzxjaXJjbGUgc3Ryb2tlLXdpZHRoPSIwLjI4NTcwOCIgc3Ryb2tlPSIjRDVEQUREIiBmaWxsPSJ1cmwoI3BhaW50MF9saW5lYXJfMzg5MF8yMTUzNSkiIHI9IjcuODU2OTYiIGN5PSI3Ljk5NzM4IiBjeD0iNy45OTczOCIvPiYjeGE7PGcgY2xpcC1wYXRoPSJ1cmwoI2NsaXAwXzM4OTBfMjE1MzUpIj4mI3hhOzxwYXRoIGZpbGw9InVybCgjcGFpbnQxX2xpbmVhcl8zODkwXzIxNTM1KSIgZD0iTTcuODc5MTggOC42NDM4MUM3Ljk2MzM1IDguNjIxNDkgOC4wNDEzMyA4LjU3NDQ0IDguMTEzMTIgOC41MDI2NUM4LjIxNzI5IDguMzk4NDggOC4yNjkzNyA4LjI4MTI5IDguMjY5MzcgOC4xNTEwOEM4LjI2OTM3IDguMDIwODggOC4yMTcyOSA3LjkwMzY5IDguMTEzMTIgNy43OTk1Mkw3LjIxNDY5IDYuOTIwNjJMNy41MjcxOSA2LjYwODEyTDguNDA2MDkgNy41MDY1NkM4LjUxMDI2IDcuNjEwNzIgOC42Mjc0NSA3LjY2MjgxIDguNzU3NjYgNy42NjI4MUM4Ljg4Nzg2IDcuNjYyODEgOS4wMDUwNSA3LjYxMDcyIDkuMTA5MjIgNy41MDY1NkM5LjIxMzM5IDcuNDAyMzkgOS4yNjU0NyA3LjI4NTIgOS4yNjU0NyA3LjE1NDk5QzkuMjY1NDcgNy4wMjQ3OSA5LjIxMzM5IDYuOTA3NiA5LjEwOTIyIDYuODAzNDNMOC4yMTA3OCA1LjkyNDUzTDguNjIwOTQgNS41MTQzOEM4LjcxMjA4IDUuNDIzMjMgOC43NTc2NiA1LjMxMjU1IDguNzU3NjYgNS4xODIzNUM4Ljc1NzY2IDUuMDM5MTIgOC43MTIwOCA0LjkyMTkzIDguNjIwOTQgNC44MzA3OUw4LjE3MTcyIDQuMzgxNTdDNy43OTQxMSA0LjAwMzk3IDcuMzUxNCAzLjgwMjE0IDYuODQzNTkgMy43NzYxQzYuMzM1NzggMy43NTAwNiA1Ljg4MDA1IDMuODk5OCA1LjQ3NjQgNC4yMjUzMkw0LjIzNzMxIDIuOTUzODZDNC4xMzMxNCAyLjg0OTY5IDQuMDE1OTUgMi43OTc2MSAzLjg4NTc0IDIuNzk3NjFDMy43Njg1NSAyLjc5NzYxIDMuNjU3ODggMi44NDk2OSAzLjU1MzcxIDIuOTUzODZDMy40NDk1NCAzLjA1ODAyIDMuMzk3NDYgMy4xNzUyMSAzLjM5NzQ2IDMuMzA1NDJDMy4zOTc0NiAzLjQzNTYzIDMuNDQ5NTQgMy41NTI4MSAzLjU1MzcxIDMuNjU2OThMNC43OTI4MSA0LjkyODQ0QzQuNDkzMzMgNS4zMzIwOSA0LjM1NjYxIDUuNzgxMyA0LjM4MjY1IDYuMjc2MDlDNC40MDg2OSA2Ljc1Nzg2IDQuNjEwNTIgNy4xODc1NSA0Ljk4ODEyIDcuNTY1MTVMNS4zNTkyMSA3LjkyMDFDNS41ODIzNyA3Ljg1Mzg1IDUuODEzMjMgNy44MjAxOSA2LjA0ODk4IDcuODIwMTlDNi41NjI2OCA3LjgyMDE5IDcuMDM3OSA3Ljk3OTkzIDcuNDUyNTQgOC4yNzEzQzcuNjA5ODYgOC4zODE4NSA3Ljc1MjAzIDguNTA2NTQgNy44NzkxOCA4LjY0MzgxWiIvPiYjeGE7PHBhdGggZmlsbD0idXJsKCNwYWludDJfbGluZWFyXzM4OTBfMjE1MzUpIiBkPSJNMTMuMzY2MiAxMi4yNTA3QzEzLjM2NjIgMTIuMTMzNSAxMy4zMTQyIDEyLjAyMjggMTMuMjEgMTEuOTE4N0wxMS44MjMzIDEwLjUxMjRDMTIuMTQ4OCAxMC4xMjE4IDEyLjI5ODUgOS42ODU2MiAxMi4yNzI1IDkuMjAzODVDMTIuMjU5NSA4LjcwOTA2IDEyLjA2NDIgOC4yNzI4NiAxMS42ODY2IDcuODk1MjZMMTEuMjM3MyA3LjQ0NjA0QzExLjEzMzIgNy4zNDE4OCAxMS4wMTYgNy4yODk3OSAxMC44ODU4IDcuMjg5NzlDMTAuNzU1NiA3LjI4OTc5IDEwLjYzODQgNy4zNDE4OCAxMC41MzQyIDcuNDQ2MDRMOC43MTYzMSA5LjI2Mzk2QzguODY2NjcgOS4zNzc0NSA5LjAwMTk4IDkuNTA4OTIgOS4xMjEzMiA5LjY1NjVDOS4zMDkyIDkuODgyMDIgOS40NTAxMSAxMC4xMzU3IDkuNTQ4MTUgMTAuNDA4QzkuNjUyODMgMTAuNjk4OCA5LjcwMDQ4IDExLjAwMDkgOS43MDA0OCAxMS4zMDZDOS43MDA0OCAxMS40NDM4IDkuNjkwNTMgMTEuNTgwNiA5LjY3MDMgMTEuNzE1N0M5LjcwNDA3IDExLjcxOSA5LjczODE0IDExLjcyMTYgOS43NzI1MSAxMS43MjM0QzEwLjI4MDMgMTEuNzM2NCAxMC43MzYgMTEuNTY3MSAxMS4xMzk3IDExLjIxNTZMMTIuNTI2NCAxMi42MDIzQzEyLjYzMDYgMTIuNzA2NCAxMi43NDEyIDEyLjc1ODUgMTIuODU4NCAxMi43NTg1QzEyLjk4ODYgMTIuNzU4NSAxMy4xMDU4IDEyLjcwNjQgMTMuMjEgMTIuNjAyM0MxMy4zMTQyIDEyLjQ5ODEgMTMuMzY2MiAxMi4zODA5IDEzLjM2NjIgMTIuMjUwN1oiLz4mI3hhOzxwYXRoIGZpbGw9InVybCgjcGFpbnQzX2xpbmVhcl8zODkwXzIxNTM1KSIgZD0iTTQuNTI2NDUgMTIuNzk3N0g3LjM1NDExQzcuNTQwNTUgMTIuNzk3NyA3LjcxNjYzIDEyLjc1OTcgNy44ODIzNSAxMi42ODM3QzguMDQ4MDggMTIuNjA3OCA4LjE4OTYzIDEyLjUwNDIgOC4zMDcwMiAxMi4zNzNDOC40MzEzMSAxMi4yMzQ5IDguNTI3OTkgMTIuMDc2MSA4LjU5NzA0IDExLjg5NjZDOC42NjYwOSAxMS43MTAxIDguNzAwNjEgMTEuNTEzMyA4LjcwMDYxIDExLjMwNjJDOC43MDA2MSAxMS4xMDU5IDguNjY5NTQgMTAuOTE5NSA4LjYwNzQgMTAuNzQ2OEM4LjU0NTI1IDEwLjU3NDIgOC40NTg5MyAxMC40MjIzIDguMzQ4NDUgMTAuMjkxMUM4LjIzNzk3IDEwLjE1MyA4LjEwNjc3IDEwLjA0MjUgNy45NTQ4NiA5Ljk1OTY2QzcuODAyOTUgOS44NzY4IDcuNjQwNjcgOS44Mjg0NiA3LjQ2ODA1IDkuODE0NjVDNy4zMjk5NCA5LjUxMDgzIDcuMTMzMTUgOS4yNjkxNSA2Ljg3NzY2IDkuMDg5NjFDNi42MjIxNyA4LjkxMDA4IDYuMzQ1OTYgOC44MjAzMSA2LjA0OTA0IDguODIwMzFDNS44NTU2OSA4LjgyMDMxIDUuNjY5MjUgOC44NTgyOSA1LjQ4OTcyIDguOTM0MjVDNS4zMTcwOSA5LjAxMDIgNS4xNjE3MyA5LjExMzc4IDUuMDIzNjIgOS4yNDQ5OEM0Ljg4NTUyIDkuMzc2MTggNC43NzE1OSA5LjUzNSA0LjY4MTgyIDkuNzIxNDNDNC41OTIwNSA5LjkwMDk3IDQuNTI5OTEgMTAuMDk0MyA0LjQ5NTM4IDEwLjMwMTVDNC4zNDM0NyAxMC4zMDE1IDQuMTk4NDYgMTAuMzM2IDQuMDYwMzYgMTAuNDA1QzMuOTI5MTYgMTAuNDY3MiAzLjgxNTIyIDEwLjU1NyAzLjcxODU1IDEwLjY3NDNDMy42MjE4OCAxMC43ODQ4IDMuNTQyNDcgMTAuOTE2IDMuNDgwMzIgMTEuMDY3OUMzLjQyNTA4IDExLjIxOTkgMy4zOTc0NiAxMS4zNzg3IDMuMzk3NDYgMTEuNTQ0NEMzLjM5NzQ2IDExLjcxNyAzLjQyNTA4IDExLjg3OTMgMy40ODAzMiAxMi4wMzEyQzMuNTQyNDcgMTIuMTgzMSAzLjYyNTMzIDEyLjMxNzggMy43Mjg5MSAxMi40MzUyQzMuODMyNDkgMTIuNTQ1NiAzLjk1MzMzIDEyLjYzNTQgNC4wOTE0MyAxMi43MDQ1QzQuMjI5NTMgMTIuNzY2NiA0LjM3NDU0IDEyLjc5NzcgNC41MjY0NSAxMi43OTc3WiIvPiYjeGE7PC9nPiYjeGE7PGRlZnM+JiN4YTs8bGluZWFyR3JhZGllbnQgZ3JhZGllbnRVbml0cz0idXNlclNwYWNlT25Vc2UiIHkyPSIxNC43NDUzIiB4Mj0iMTMuNjg1NCIgeTE9IjIuMjY4NDUiIHgxPSIxLjQ0ODQ4IiBpZD0icGFpbnQwX2xpbmVhcl8zODkwXzIxNTM1Ij4mI3hhOzxzdG9wIHN0b3AtY29sb3I9IndoaXRlIi8+JiN4YTs8c3RvcCBzdG9wLWNvbG9yPSIjRUFFQ0VFIiBvZmZzZXQ9IjEiLz4mI3hhOzwvbGluZWFyR3JhZGllbnQ+JiN4YTs8bGluZWFyR3JhZGllbnQgZ3JhZGllbnRVbml0cz0idXNlclNwYWNlT25Vc2UiIHkyPSI3Ljc4MjAyIiB4Mj0iOC4zNzA1NSIgeTE9IjMuNjcxODciIHgxPSI0LjI3NzEiIGlkPSJwYWludDFfbGluZWFyXzM4OTBfMjE1MzUiPiYjeGE7PHN0b3Agc3RvcC1jb2xvcj0iIzAxOTVGRiIvPiYjeGE7PHN0b3Agc3RvcC1jb2xvcj0iIzExNDdFOSIgb2Zmc2V0PSIwLjk5MTAyOCIvPiYjeGE7PC9saW5lYXJHcmFkaWVudD4mI3hhOzxsaW5lYXJHcmFkaWVudCBncmFkaWVudFVuaXRzPSJ1c2VyU3BhY2VPblVzZSIgeTI9IjExLjMyMjQiIHgyPSIxMy4xOTI5IiB5MT0iOC4xMDc2MSIgeDE9IjkuNDEzMzUiIGlkPSJwYWludDJfbGluZWFyXzM4OTBfMjE1MzUiPiYjeGE7PHN0b3Agc3RvcC1jb2xvcj0iIzAxOTVGRiIvPiYjeGE7PHN0b3Agc3RvcC1jb2xvcj0iIzExNDdFOSIgb2Zmc2V0PSIwLjk5MTAyOCIvPiYjeGE7PC9saW5lYXJHcmFkaWVudD4mI3hhOzxsaW5lYXJHcmFkaWVudCBncmFkaWVudFVuaXRzPSJ1c2VyU3BhY2VPblVzZSIgeTI9IjEyLjk3OTQiIHgyPSI2Ljg1MDQ4IiB5MT0iOS40MDU0NyIgeDE9IjQuMTgxNSIgaWQ9InBhaW50M19saW5lYXJfMzg5MF8yMTUzNSI+JiN4YTs8c3RvcCBzdG9wLWNvbG9yPSIjMTM0OEZGIi8+JiN4YTs8c3RvcCBzdG9wLWNvbG9yPSIjMDYyMzhEIiBvZmZzZXQ9IjEiLz4mI3hhOzwvbGluZWFyR3JhZGllbnQ+JiN4YTs8Y2xpcFBhdGggaWQ9ImNsaXAwXzM4OTBfMjE1MzUiPiYjeGE7PHJlY3QgdHJhbnNmb3JtPSJ0cmFuc2xhdGUoMy4zOTc0NiAyLjc5NzYxKSIgZmlsbD0id2hpdGUiIGhlaWdodD0iMTAiIHdpZHRoPSIxMCIvPiYjeGE7PC9jbGlwUGF0aD4mI3hhOzwvZGVmcz4mI3hhOzwvc3ZnPg==;fontStyle=0;fontSize=12;fontColor=#1D2D3E" parent="1" vertex="1">
          <mxGeometry x="401.71000000000004" y="360.84999999999997" width="54.29" height="54.29" as="geometry" />
        </mxCell>
        <mxCell id="2XOn3tt3TwSdEkKgVilo-32" value="" style="endArrow=blockThin;html=1;rounded=0;strokeColor=#A3A3A3;strokeWidth=2;exitX=1.015;exitY=0.505;exitDx=0;exitDy=0;exitPerimeter=0;endFill=1;endSize=4;startSize=4;entryX=0;entryY=0.5;entryDx=0;entryDy=0;" parent="1" source="2XOn3tt3TwSdEkKgVilo-13" target="2XOn3tt3TwSdEkKgVilo-31" edge="1">
          <mxGeometry width="50" height="50" relative="1" as="geometry">
            <mxPoint x="332.14" y="379.95000000000005" as="sourcePoint" />
            <mxPoint x="464.0000000000001" y="360.855" as="targetPoint" />
          </mxGeometry>
        </mxCell>
        <mxCell id="2XOn3tt3TwSdEkKgVilo-33" value="DEV" style="rounded=1;whiteSpace=wrap;html=1;fillColor=#dae8fc;strokeColor=#6c8ebf;" parent="1" vertex="1">
          <mxGeometry x="558" y="346" width="73" height="20" as="geometry" />
        </mxCell>
        <mxCell id="2XOn3tt3TwSdEkKgVilo-34" value="Développeur" style="shape=image;verticalLabelPosition=bottom;verticalAlign=top;imageAspect=0;aspect=fixed;image=data:image/svg+xml,PHN2ZyB4bWxucz0iaHR0cDovL3d3dy53My5vcmcvMjAwMC9zdmciIGZpbGw9Im5vbmUiIHZpZXdCb3g9IjAgMCAyOCAyOCIgaGVpZ2h0PSIyOCIgd2lkdGg9IjI4Ij4mI3hhOzxnIGNsaXAtcGF0aD0idXJsKCNjbGlwMF84NzBfMTk0KSI+JiN4YTs8cGF0aCBmaWxsPSJ1cmwoI3BhaW50MF9saW5lYXJfODcwXzE5NCkiIGQ9Ik0yMi4yNDcxIDEzLjY5OTVDMjMuOTUwMiAxNC42MzYyIDI1LjM4NDEgMTUuOTk0NiAyNi40MTE0IDE3LjY0NDZDMjcuNDcwNSAxOS4zMjQ0IDI4IDIxLjIyMzMgMjggMjMuMzQzMlYyNi40NjZDMjggMjcuNDg4MiAyNy40NzA1IDI4LjAwMDIgMjYuNDExNCAyOC4wMDAySDcuNzgxNThDNy4zMDY0MSAyOC4wMDAyIDYuOTIyNDEgMjcuODU0NyA2LjYyOTYgMjcuNTYxOEM2LjMzODUzIDI3LjMwNTggNi4xOTEyNSAyNi45NDExIDYuMTkxMjUgMjYuNDY2VjI0Ljg3NzRIMS41MzQyMkMwLjUxMTk5MiAyNC44Nzc0IDAgMjQuMzY1NCAwIDIzLjM0MzJWMjAuMjIwNEMwIDE4LjY4NDQgMC40MjA4MTUgMTcuMjk3NSAxLjI2MDY5IDE2LjA1NDNDMi4wNjMyMyAxNC44NDU1IDMuMTgxNDEgMTMuODc5NSA0LjQ5Mzk2IDEzLjI2MTFDNC4wMzAzMyAxMi43MzI5IDMuNjc2MyAxMi4xMTc4IDMuNDUyNDQgMTEuNDUxNkMzLjIzNjM0IDEwLjc3ODkgMy4xMjUxNiAxMC4wNzY5IDMuMTIyOCA5LjM3MDM0QzMuMTIyOCA4LjQ5MzY0IDMuMjg3NjIgNy42OTA1OSAzLjYxNzI2IDYuOTU5NDJDMy45NDUxNCA2LjE5MTQzIDQuMzgzNDkgNS41MzM5MSA0LjkzMjMxIDQuOTg2ODVDNS41MDA2NiA0LjQxMzcyIDYuMTY5MjIgMy45NDk1OSA2LjkwNDg4IDMuNjE3NDVDNy42NjYzNSAzLjI5IDguNDg2OTEgMy4xMjIzMSA5LjMxNTggMy4xMjQ3NEM5LjU3MTc5IDMuMTI0NzQgOS44MDg1IDMuMTQyMjggMTAuMDI3NyAzLjE3NzM0QzEwLjI0NjkgMy4xNzczNCAxMC40ODM2IDMuMjE1OTIgMTAuNzM5NiAzLjI4NzgxQzExLjQyMjYgMi4yNzUwOCAxMi4zNDU0IDEuNDQ2ODkgMTMuNDI1OCAwLjg3Njg4N0MxNC41NjAxIDAuMjkyMDMxIDE1LjgxOTQgLTAuMDA4ODEwMjcgMTcuMDk1NiAwLjAwMDE4ODQ2M0MxOC4xOTE1IDAuMDAwMTg4NDYzIDE5LjIxNTUgMC4yMDE4MjkgMjAuMTY0MSAwLjYwMzM1N0MyMS4xMTQ0IDEuMDA2NjQgMjEuOTM1IDEuNTcxMjMgMjIuNjI5MyAyLjMwMjRDMjMuMzIzNyAyLjk5Njc0IDIzLjg3MjUgMy44MTczMyAyNC4yNzQgNC43Njc2OEMyNC42NzczIDUuNjc5NDQgMjQuODc3MiA2LjY4NTg5IDI0Ljg3NzIgNy43ODE3N0MyNC44ODA4IDguOTMzNzYgMjQuNjM4IDEwLjA3MzIgMjQuMTY1MyAxMS4xMjM3QzIzLjc0MzMgMTIuMTI0NyAyMy4wODUyIDEzLjAwODQgMjIuMjQ3MSAxMy42OTk1Wk0xNy4wOTM5IDMuMTIyOTlDMTUuNzc4OCAzLjEyMjk5IDE0LjY2NTQgMy41Nzg4NyAxMy43NTE5IDQuNDk0MTVDMTIuODc1MiA1LjM3MDg0IDEyLjQzNjggNi40NjY3MiAxMi40MzY4IDcuNzgxNzdDMTIuNDM2OCA5LjA5NjgxIDEyLjg3NTIgMTAuMjEwMiAxMy43NTE5IDExLjEyMzdDMTQuNjYzNyAxMi4wMDA0IDE1Ljc3ODggMTIuNDM4OCAxNy4wOTM5IDEyLjQzODhDMTguNDA4OSAxMi40Mzg4IDE5LjUwNDggMTIuMDAwNCAyMC4zODE1IDExLjEyMzdDMjEuMjk1IDEwLjIxMiAyMS43NTA5IDkuMDk2ODEgMjEuNzUwOSA3Ljc4MTc3QzIxLjc1MDkgNi40NjY3MiAyMS4yOTUgNS4zNzA4NCAyMC4zODMyIDQuNDk0MTVDMTkuNTA2NSAzLjU4MDYzIDE4LjQwODkgMy4xMjI5OSAxNy4wOTM5IDMuMTIyOTlaTTkuMTUwOTggNi4yNDkzQzguMzA5MzUgNi4yNDkzIDcuNTc5OTQgNi41NTk2NSA2Ljk1OTIzIDcuMTgwMzVDNi4zNzUzNSA3Ljc2NDIzIDYuMDgyNTQgOC40OTU0IDYuMDgyNTQgOS4zNzIxQzYuMDgyNTQgMTAuMjEzNyA2LjM3NTM1IDEwLjk0MzEgNi45NTkyMyAxMS41NjM4QzcuNTc5OTQgMTIuMTQ3NyA4LjMwOTM1IDEyLjQ0MDUgOS4xNTA5OCAxMi40NDA1SDEwLjkwNDRDMTAuNDE0MiAxMS43OTA5IDEwLjAyNjMgMTEuMDcwMSA5Ljc1NDE1IDEwLjMwMzJDOS40NjczMyA5LjQ5MzkxIDkuMzE5MTMgOC42NDIwOCA5LjMxNTggNy43ODM1MlY3LjAxMjAyQzkuMzQ1MDUgNi43NTE5MSA5LjM5OTY2IDYuNDk1MjggOS40Nzg4NiA2LjI0NTc5SDkuMTUwOThWNi4yNDkzWk0zLjEyMjggMjEuODEwN0g2LjM1NjA2QzYuNjg1NyAxOS4yODkzIDcuNzI1NDcgMTcuMjA4IDkuNDc4ODYgMTUuNTYzM0g3Ljc4MzMzQzYuNDY4MjggMTUuNTYzMyA1LjM1MzEyIDE2LjAxOTIgNC40Mzk2IDE2LjkzMjdDMy41NjI5IDE3LjgwOTQgMy4xMjQ1NSAxOC45MDcxIDMuMTI0NTUgMjAuMjIyMUwzLjEyMjggMjEuODEwN1pNMjQuODc3MiAyMy4zNDQ5QzI0Ljg4OTMgMjIuMzA5MSAyNC42ODM5IDIxLjI4MjIgMjQuMjc0IDIwLjMzMDhDMjMuODkxMiAxOS40MSAyMy4zMzI1IDE4LjU3MjcgMjIuNjI5MyAxNy44NjU2QzIxLjkzNDUgMTcuMTM0MSAyMS4wOTQ5IDE2LjU1NTUgMjAuMTY0MSAxNi4xNjY1QzE5LjE5MjUgMTUuNzYwMiAxOC4xNDg3IDE1LjU1NSAxNy4wOTU2IDE1LjU2MzNDMTUuOTk5NyAxNS41NjMzIDE0Ljk3NzUgMTUuNzY1IDE0LjAyNzIgMTYuMTY2NUMxMy4xMTU0IDE2LjU2OTggMTIuMjkxMyAxNy4xMzQ0IDExLjU2MTkgMTcuODY1NkMxMC44NTg3IDE4LjU3MjYgMTAuMyAxOS40MSA5LjkxNzIxIDIwLjMzMDhDOS41MDgwNCAyMS4yODI0IDkuMzAzMTUgMjIuMzA5MiA5LjMxNTggMjMuMzQ0OVYyNC44NzkxSDI0Ljg3NzJWMjMuMzQ0OVoiLz4mI3hhOzwvZz4mI3hhOzxkZWZzPiYjeGE7PGxpbmVhckdyYWRpZW50IGdyYWRpZW50VW5pdHM9InVzZXJTcGFjZU9uVXNlIiB5Mj0iMTcuMTI4NSIgeDI9IjI4LjM0MjkiIHkxPSIyLjYzMzkxIiB4MT0iMy42MTg3NCIgaWQ9InBhaW50MF9saW5lYXJfODcwXzE5NCI+JiN4YTs8c3RvcCBzdG9wLWNvbG9yPSIjMjM5NUZGIi8+JiN4YTs8c3RvcCBzdG9wLWNvbG9yPSIjMDA1N0QyIiBvZmZzZXQ9IjEiLz4mI3hhOzwvbGluZWFyR3JhZGllbnQ+JiN4YTs8Y2xpcFBhdGggaWQ9ImNsaXAwXzg3MF8xOTQiPiYjeGE7PHJlY3QgZmlsbD0id2hpdGUiIGhlaWdodD0iMjgiIHdpZHRoPSIyOCIvPiYjeGE7PC9jbGlwUGF0aD4mI3hhOzwvZGVmcz4mI3hhOzwvc3ZnPg==" parent="1" vertex="1">
          <mxGeometry x="-6.9199999999999875" y="750" width="50" height="50" as="geometry" />
        </mxCell>
        <mxCell id="2XOn3tt3TwSdEkKgVilo-35" value="" style="shape=image;verticalLabelPosition=bottom;verticalAlign=top;imageAspect=0;aspect=fixed;image=data:image/svg+xml,PHN2ZyB4bWxucz0iaHR0cDovL3d3dy53My5vcmcvMjAwMC9zdmciIGZpbGw9Im5vbmUiIHZpZXdCb3g9IjAgMCAyOSAyOCIgaGVpZ2h0PSIyOCIgd2lkdGg9IjI5Ij4mI3hhOzxnIGNsaXAtcGF0aD0idXJsKCNjbGlwMF84NzBfMTg0KSI+JiN4YTs8cGF0aCBmaWxsPSJ1cmwoI3BhaW50MF9saW5lYXJfODcwXzE4NCkiIGQ9Ik0xNC40NzYxIDIxLjAxNDJWMjMuMzE0NkgxNS42MjYyQzE2LjM5NDIgMjMuMzE0NiAxNi43NzY0IDIzLjcxNzkgMTYuNzc2NCAyNC41MjA5QzE2Ljc4MDggMjQuNjczMSAxNi43NTQgMjQuODI0NSAxNi42OTc2IDI0Ljk2NkMxNi42NDEyIDI1LjEwNzQgMTYuNTU2NCAyNS4yMzU4IDE2LjQ0ODYgMjUuMzQzMkMxNi4yNjYyIDI1LjU2MDYgMTUuOTkyNyAyNS42NzExIDE1LjYyNjIgMjUuNjcxMUg4LjYxMjk0QzguNDYwOTIgMjUuNjc1IDguMzA5NzEgMjUuNjQ3NyA4LjE2ODU5IDI1LjU5MTFDOC4wMjc0OCAyNS41MzQ0IDcuODk5NDYgMjUuNDQ5NCA3Ljc5MjM5IDI1LjM0MTRDNy42ODQ0IDI1LjIzNDQgNy41OTk0NSAyNS4xMDYzIDcuNTQyNzYgMjQuOTY1MkM3LjQ4NjA3IDI0LjgyNDEgNy40NTg4NSAyNC42NzI5IDcuNDYyNzYgMjQuNTIwOUM3LjQ2Mjc2IDI0LjE1NDQgNy41NzMyMiAyMy44NjM0IDcuNzkyMzkgMjMuNjQ0MkM3Ljg5OTQ2IDIzLjUzNjIgOC4wMjc0OCAyMy40NTEzIDguMTY4NTkgMjMuMzk0NkM4LjMwOTcxIDIzLjMzNzkgOC40NjA5MiAyMy4zMTA3IDguNjEyOTQgMjMuMzE0NkgxMi4xMTk2VjIxLjAxNDJIMy45NTYxMUMzLjQ5MTU4IDIxLjAyMzcgMy4wMjk3NSAyMC45NDEzIDIuNTk3MSAyMC43NzE5QzIuMTY0NDUgMjAuNjAyNSAxLjc2OTQ4IDIwLjM0OTQgMS40MzQ4MyAyMC4wMjcxQzEuMTEzMDMgMTkuNjkyNSAwLjg2MDM3IDE5LjI5NzggMC42OTEyOSAxOC44NjU0QzAuNTIyMjA5IDE4LjQzMzEgMC40NDAwMzIgMTcuOTcxNyAwLjQ0OTQ1OSAxNy41MDc2VjUuODM3NDRDMC40NDk0NTkgNC44NTAzMiAwLjc3OTA4NCA0LjAyODAxIDEuNDM2NTggMy4zNzA1MUMxLjc2MzE2IDMuMDM0MDUgMi4xNTUyIDIuNzY4MDYgMi41ODg1MyAyLjU4ODk0QzMuMDIxODYgMi40MDk4MiAzLjQ4NzI4IDIuMzIxMzcgMy45NTYxMSAyLjMyOTAzSDIyLjYzOTVDMjMuNjI2NyAyLjMyOTAzIDI0LjQ0NzIgMi42NzYxOSAyNS4xMDQ3IDMuMzcwNTFDMjUuNzk5IDQuMDI4MDEgMjYuMTQ2MiA0Ljg1MDMyIDI2LjE0NjIgNS44MzU2OVY4LjE5MjE2QzI2LjE1MDYgOC4zNDQzNCAyNi4xMjM4IDguNDk1ODIgMjYuMDY3NCA4LjYzNzI0QzI2LjAxMSA4Ljc3ODY2IDI1LjkyNjIgOC45MDcwNCAyNS44MTgzIDkuMDE0NDZDMjUuNzAyMyA5LjEyNjA4IDI1LjU2NDcgOS4yMTI4NyAyNS40MTM5IDkuMjY5NTRDMjUuMjYzMiA5LjMyNjIyIDI1LjEwMjUgOS4zNTE1OCAyNC45NDE3IDkuMzQ0MDlDMjQuNzg5NCA5LjM0ODI0IDI0LjYzNzggOS4zMjExNCAyNC40OTY0IDkuMjY0NDRDMjQuMzU0OSA5LjIwNzc1IDI0LjIyNjYgOS4xMjI2NyAyNC4xMTk0IDkuMDE0NDZDMjQuMDExMSA4LjkwNzE5IDIzLjkyNjEgOC43Nzg4OCAyMy44Njk0IDguNjM3NDVDMjMuODEyNyA4LjQ5NjAyIDIzLjc4NTYgOC4zNDQ0NyAyMy43ODk3IDguMTkyMTZWNS44Mzc0NEMyMy43ODk3IDUuMDY5NDggMjMuNDA3NSA0LjY4NTUgMjIuNjM5NSA0LjY4NTVIMy45NTYxMUMzLjE4ODE1IDQuNjg1NSAyLjgwNTkzIDUuMDY5NDggMi44MDU5MyA1LjgzNTY5VjE3LjUwNzZDMi44MDU5MyAxOC4yNzM4IDMuMTg4MTUgMTguNjU3OCAzLjk1NjExIDE4LjY1NzhIMTUuNjI2MkMxNi4zOTQyIDE4LjY1NzggMTYuNzc2NCAxOS4wNjEgMTYuNzc2NCAxOS44NjRDMTYuNzgwNiAyMC4wMTU5IDE2Ljc1MzYgMjAuMTY3MSAxNi42OTcyIDIwLjMwODJDMTYuNjQwOSAyMC40NDkzIDE2LjU1NjIgMjAuNTc3NCAxNi40NDg2IDIwLjY4NDZDMTYuMjY2MiAyMC45MDM4IDE1Ljk5MjcgMjEuMDE0MiAxNS42MjYyIDIxLjAxNDJIMTQuNDc2MVpNMjcuMjk4MSAxMS42NDQ1QzI4LjA2NDMgMTEuNjQ0NSAyOC40NDgzIDEyLjA0NzcgMjguNDQ4MyAxMi44NTA3VjI0LjUyMDlDMjguNDUyNSAyNC42NzMyIDI4LjQyNTQgMjQuODI0NyAyOC4zNjg3IDI0Ljk2NjJDMjguMzEyIDI1LjEwNzYgMjguMjI2OSAyNS4yMzU5IDI4LjExODcgMjUuMzQzMkMyNy45MzYzIDI1LjU2MDYgMjcuNjYyOCAyNS42NzExIDI3LjI5NjQgMjUuNjcxMUgyMC4yODMxQzIwLjEzMTEgMjUuNjc1IDE5Ljk3OTggMjUuNjQ3NyAxOS44Mzg3IDI1LjU5MTFDMTkuNjk3NiAyNS41MzQ0IDE5LjU2OTYgMjUuNDQ5NCAxOS40NjI1IDI1LjM0MTRDMTkuMzU0NSAyNS4yMzQ0IDE5LjI2OTYgMjUuMTA2MyAxOS4yMTI5IDI0Ljk2NTJDMTkuMTU2MiAyNC44MjQxIDE5LjEyOSAyNC42NzI5IDE5LjEzMjkgMjQuNTIwOVYxMi44NTA3QzE5LjEzMjkgMTIuNDg0MyAxOS4yNDM0IDEyLjE5MzIgMTkuNDYyNSAxMS45NzQxQzE5LjU2OTggMTEuODY1OSAxOS42OTgxIDExLjc4MDggMTkuODM5NSAxMS43MjQxQzE5Ljk4MSAxMS42Njc0IDIwLjEzMjUgMTEuNjQwMyAyMC4yODQ4IDExLjY0NDVIMjcuMjk4MVpNMjEuNDg5NCAxNC4wMDA5VjIyLjE2NDRIMjYuMTQ2MlYxNC4wMDA5SDIxLjQ4OTRaIi8+JiN4YTs8L2c+JiN4YTs8ZGVmcz4mI3hhOzxsaW5lYXJHcmFkaWVudCBncmFkaWVudFVuaXRzPSJ1c2VyU3BhY2VPblVzZSIgeTI9IjIwLjE1NjIiIHgyPSIyNi4yOTY0IiB5MT0iNC41MjQzOSIgeDE9IjQuMDY3NDciIGlkPSJwYWludDBfbGluZWFyXzg3MF8xODQiPiYjeGE7PHN0b3Agc3RvcC1jb2xvcj0iIzIzOTVGRiIvPiYjeGE7PHN0b3Agc3RvcC1jb2xvcj0iIzAwNTdEMiIgb2Zmc2V0PSIxIi8+JiN4YTs8L2xpbmVhckdyYWRpZW50PiYjeGE7PGNsaXBQYXRoIGlkPSJjbGlwMF84NzBfMTg0Ij4mI3hhOzxyZWN0IHRyYW5zZm9ybT0idHJhbnNsYXRlKDAuNDQ4NzMpIiBmaWxsPSJ3aGl0ZSIgaGVpZ2h0PSIyOCIgd2lkdGg9IjI4Ii8+JiN4YTs8L2NsaXBQYXRoPiYjeGE7PC9kZWZzPiYjeGE7PC9zdmc+" parent="1" vertex="1">
          <mxGeometry x="-12.999999999999986" y="674" width="62.15" height="60" as="geometry" />
        </mxCell>
        <mxCell id="2XOn3tt3TwSdEkKgVilo-50" style="edgeStyle=orthogonalEdgeStyle;rounded=0;orthogonalLoop=1;jettySize=auto;html=1;exitX=0.5;exitY=0;exitDx=0;exitDy=0;strokeColor=#9673a6;strokeWidth=2;endArrow=blockThin;endFill=1;fillColor=#e1d5e7;" parent="1" source="2XOn3tt3TwSdEkKgVilo-35" target="2XOn3tt3TwSdEkKgVilo-17" edge="1">
          <mxGeometry relative="1" as="geometry">
            <mxPoint x="131" y="684" as="sourcePoint" />
            <mxPoint x="4.799999999999727" y="392" as="targetPoint" />
          </mxGeometry>
        </mxCell>
        <mxCell id="2XOn3tt3TwSdEkKgVilo-52" style="edgeStyle=none;rounded=0;orthogonalLoop=1;jettySize=auto;html=1;fontColor=#BFBFBF;fontSize=13;strokeColor=#A3A3A3;endSize=5;strokeWidth=2;endArrow=blockThin;endFill=1;entryX=0;entryY=0.25;entryDx=0;entryDy=0;exitX=1;exitY=0.5;exitDx=0;exitDy=0;" parent="1" source="2XOn3tt3TwSdEkKgVilo-31" target="2XOn3tt3TwSdEkKgVilo-51" edge="1">
          <mxGeometry relative="1" as="geometry">
            <mxPoint x="466" y="384" as="sourcePoint" />
            <mxPoint x="557" y="384" as="targetPoint" />
          </mxGeometry>
        </mxCell>
        <mxCell id="zEnndhM-SragiBq4aa2N-3" style="edgeStyle=orthogonalEdgeStyle;rounded=0;orthogonalLoop=1;jettySize=auto;html=1;exitX=0.5;exitY=0;exitDx=0;exitDy=0;strokeColor=#d6b656;strokeWidth=2;endArrow=blockThin;endFill=1;fillColor=#fff2cc;entryX=0;entryY=0.5;entryDx=0;entryDy=0;entryPerimeter=0;" edge="1" parent="1" source="2XOn3tt3TwSdEkKgVilo-35" target="zEnndhM-SragiBq4aa2N-1">
          <mxGeometry relative="1" as="geometry">
            <mxPoint x="28" y="684" as="sourcePoint" />
            <mxPoint x="-60" y="419" as="targetPoint" />
          </mxGeometry>
        </mxCell>
      </root>
    </mxGraphModel>
  </diagram>
</mxfile>
